<svg
    width="40"
    viewBox="0 0 37 33"
    fill="none"
    xmlns="http://www.w3.org/2000/svg"
>
    <path
        d="M26.75 22V22.4481L27.0844 22.7463L29.7514 25.125H7.2486L9.91563 22.7463L10.25 22.4481V22V15.125C10.25 11.3233 12.4695 8.24278 16.3943 7.41339L17.1875 7.24576V6.435V5.5C17.1875 5.01554 17.6621 4.4375 18.5 4.4375C19.338 4.4375 19.8125 5.01554 19.8125 5.5V6.435V7.24518L20.6051 7.41325C24.5158 8.24254 26.75 11.3378 26.75 15.125V22ZM20.1995 28.5C19.839 28.935 19.2444 29.25 18.5 29.25C17.7478 29.25 17.154 28.9354 16.796 28.5H20.1995Z"
        fill="white"
        stroke="#C2CFE0"                            
    />
    <path
        d="M26.2084 14.75C30.0557 14.75 33.375 11.9444 33.375 8.25C33.375 4.55565 30.0557 1.75 26.2084 1.75C22.361 1.75 19.0417 4.55565 19.0417 8.25C19.0417 11.9444 22.361 14.75 26.2084 14.75Z"
        fill="#F7685B"
        stroke="white"                            
    />
</svg>