<svg width="168" height="41" viewBox="0 0 168 41" fill="none" xmlns="http://www.w3.org/2000/svg">
<path d="M83.756 22.467C83.756 20.901 84.071 19.533 84.701 18.363C85.349 17.193 86.24 16.293 87.374 15.663C88.526 15.033 89.84 14.718 91.316 14.718C93.206 14.718 94.781 15.213 96.041 16.203C97.319 17.193 98.156 18.588 98.552 20.388H93.638C93.224 19.236 92.423 18.66 91.235 18.66C90.389 18.66 89.714 18.993 89.21 19.659C88.706 20.307 88.454 21.243 88.454 22.467C88.454 23.691 88.706 24.636 89.21 25.302C89.714 25.95 90.389 26.274 91.235 26.274C92.423 26.274 93.224 25.698 93.638 24.546H98.552C98.156 26.31 97.319 27.696 96.041 28.704C94.763 29.712 93.188 30.216 91.316 30.216C89.84 30.216 88.526 29.901 87.374 29.271C86.24 28.641 85.349 27.741 84.701 26.571C84.071 25.401 83.756 24.033 83.756 22.467ZM113.28 30.243C111.894 30.243 110.634 29.928 109.5 29.298C108.384 28.668 107.502 27.777 106.854 26.625C106.224 25.455 105.909 24.105 105.909 22.575C105.909 21.063 106.233 19.731 106.881 18.579C107.547 17.409 108.447 16.518 109.581 15.906C110.715 15.276 111.984 14.961 113.388 14.961C114.792 14.961 116.061 15.276 117.195 15.906C118.329 16.518 119.22 17.4 119.868 18.552C120.534 19.704 120.867 21.045 120.867 22.575C120.867 24.105 120.525 25.455 119.841 26.625C119.175 27.777 118.266 28.668 117.114 29.298C115.962 29.928 114.684 30.243 113.28 30.243ZM113.28 28.083C114.162 28.083 114.99 27.876 115.764 27.462C116.538 27.048 117.159 26.427 117.627 25.599C118.113 24.771 118.356 23.763 118.356 22.575C118.356 21.387 118.122 20.379 117.654 19.551C117.186 18.723 116.574 18.111 115.818 17.715C115.062 17.301 114.243 17.094 113.361 17.094C112.461 17.094 111.633 17.301 110.877 17.715C110.139 18.111 109.545 18.723 109.095 19.551C108.645 20.379 108.42 21.387 108.42 22.575C108.42 23.781 108.636 24.798 109.068 25.626C109.518 26.454 110.112 27.075 110.85 27.489C111.588 27.885 112.398 28.083 113.28 28.083ZM128.579 22.548C128.579 21.036 128.885 19.713 129.497 18.579C130.109 17.427 130.946 16.536 132.008 15.906C133.088 15.276 134.294 14.961 135.626 14.961C136.778 14.961 137.849 15.231 138.839 15.771C139.829 16.293 140.585 16.986 141.107 17.85V10.02H143.591V30H141.107V27.219C140.621 28.101 139.901 28.83 138.947 29.406C137.993 29.964 136.877 30.243 135.599 30.243C134.285 30.243 133.088 29.919 132.008 29.271C130.946 28.623 130.109 27.714 129.497 26.544C128.885 25.374 128.579 24.042 128.579 22.548ZM141.107 22.575C141.107 21.459 140.882 20.487 140.432 19.659C139.982 18.831 139.37 18.201 138.596 17.769C137.84 17.319 137.003 17.094 136.085 17.094C135.167 17.094 134.33 17.31 133.574 17.742C132.818 18.174 132.215 18.804 131.765 19.632C131.315 20.46 131.09 21.432 131.09 22.548C131.09 23.682 131.315 24.672 131.765 25.518C132.215 26.346 132.818 26.985 133.574 27.435C134.33 27.867 135.167 28.083 136.085 28.083C137.003 28.083 137.84 27.867 138.596 27.435C139.37 26.985 139.982 26.346 140.432 25.518C140.882 24.672 141.107 23.691 141.107 22.575ZM166.643 22.035C166.643 22.503 166.616 22.998 166.562 23.52H154.736C154.826 24.978 155.321 26.121 156.221 26.949C157.139 27.759 158.246 28.164 159.542 28.164C160.604 28.164 161.486 27.921 162.188 27.435C162.908 26.931 163.412 26.265 163.7 25.437H166.346C165.95 26.859 165.158 28.02 163.97 28.92C162.782 29.802 161.306 30.243 159.542 30.243C158.138 30.243 156.878 29.928 155.762 29.298C154.664 28.668 153.8 27.777 153.17 26.625C152.54 25.455 152.225 24.105 152.225 22.575C152.225 21.045 152.531 19.704 153.143 18.552C153.755 17.4 154.61 16.518 155.708 15.906C156.824 15.276 158.102 14.961 159.542 14.961C160.946 14.961 162.188 15.267 163.268 15.879C164.348 16.491 165.176 17.337 165.752 18.417C166.346 19.479 166.643 20.685 166.643 22.035ZM164.105 21.522C164.105 20.586 163.898 19.785 163.484 19.119C163.07 18.435 162.503 17.922 161.783 17.58C161.081 17.22 160.298 17.04 159.434 17.04C158.192 17.04 157.13 17.436 156.248 18.228C155.384 19.02 154.889 20.118 154.763 21.522H164.105Z" fill="#00F7F7"/>
<path d="M83.756 22.467C83.756 20.901 84.071 19.533 84.701 18.363C85.349 17.193 86.24 16.293 87.374 15.663C88.526 15.033 89.84 14.718 91.316 14.718C93.206 14.718 94.781 15.213 96.041 16.203C97.319 17.193 98.156 18.588 98.552 20.388H93.638C93.224 19.236 92.423 18.66 91.235 18.66C90.389 18.66 89.714 18.993 89.21 19.659C88.706 20.307 88.454 21.243 88.454 22.467C88.454 23.691 88.706 24.636 89.21 25.302C89.714 25.95 90.389 26.274 91.235 26.274C92.423 26.274 93.224 25.698 93.638 24.546H98.552C98.156 26.31 97.319 27.696 96.041 28.704C94.763 29.712 93.188 30.216 91.316 30.216C89.84 30.216 88.526 29.901 87.374 29.271C86.24 28.641 85.349 27.741 84.701 26.571C84.071 25.401 83.756 24.033 83.756 22.467ZM113.28 30.243C111.894 30.243 110.634 29.928 109.5 29.298C108.384 28.668 107.502 27.777 106.854 26.625C106.224 25.455 105.909 24.105 105.909 22.575C105.909 21.063 106.233 19.731 106.881 18.579C107.547 17.409 108.447 16.518 109.581 15.906C110.715 15.276 111.984 14.961 113.388 14.961C114.792 14.961 116.061 15.276 117.195 15.906C118.329 16.518 119.22 17.4 119.868 18.552C120.534 19.704 120.867 21.045 120.867 22.575C120.867 24.105 120.525 25.455 119.841 26.625C119.175 27.777 118.266 28.668 117.114 29.298C115.962 29.928 114.684 30.243 113.28 30.243ZM113.28 28.083C114.162 28.083 114.99 27.876 115.764 27.462C116.538 27.048 117.159 26.427 117.627 25.599C118.113 24.771 118.356 23.763 118.356 22.575C118.356 21.387 118.122 20.379 117.654 19.551C117.186 18.723 116.574 18.111 115.818 17.715C115.062 17.301 114.243 17.094 113.361 17.094C112.461 17.094 111.633 17.301 110.877 17.715C110.139 18.111 109.545 18.723 109.095 19.551C108.645 20.379 108.42 21.387 108.42 22.575C108.42 23.781 108.636 24.798 109.068 25.626C109.518 26.454 110.112 27.075 110.85 27.489C111.588 27.885 112.398 28.083 113.28 28.083ZM128.579 22.548C128.579 21.036 128.885 19.713 129.497 18.579C130.109 17.427 130.946 16.536 132.008 15.906C133.088 15.276 134.294 14.961 135.626 14.961C136.778 14.961 137.849 15.231 138.839 15.771C139.829 16.293 140.585 16.986 141.107 17.85V10.02H143.591V30H141.107V27.219C140.621 28.101 139.901 28.83 138.947 29.406C137.993 29.964 136.877 30.243 135.599 30.243C134.285 30.243 133.088 29.919 132.008 29.271C130.946 28.623 130.109 27.714 129.497 26.544C128.885 25.374 128.579 24.042 128.579 22.548ZM141.107 22.575C141.107 21.459 140.882 20.487 140.432 19.659C139.982 18.831 139.37 18.201 138.596 17.769C137.84 17.319 137.003 17.094 136.085 17.094C135.167 17.094 134.33 17.31 133.574 17.742C132.818 18.174 132.215 18.804 131.765 19.632C131.315 20.46 131.09 21.432 131.09 22.548C131.09 23.682 131.315 24.672 131.765 25.518C132.215 26.346 132.818 26.985 133.574 27.435C134.33 27.867 135.167 28.083 136.085 28.083C137.003 28.083 137.84 27.867 138.596 27.435C139.37 26.985 139.982 26.346 140.432 25.518C140.882 24.672 141.107 23.691 141.107 22.575ZM166.643 22.035C166.643 22.503 166.616 22.998 166.562 23.52H154.736C154.826 24.978 155.321 26.121 156.221 26.949C157.139 27.759 158.246 28.164 159.542 28.164C160.604 28.164 161.486 27.921 162.188 27.435C162.908 26.931 163.412 26.265 163.7 25.437H166.346C165.95 26.859 165.158 28.02 163.97 28.92C162.782 29.802 161.306 30.243 159.542 30.243C158.138 30.243 156.878 29.928 155.762 29.298C154.664 28.668 153.8 27.777 153.17 26.625C152.54 25.455 152.225 24.105 152.225 22.575C152.225 21.045 152.531 19.704 153.143 18.552C153.755 17.4 154.61 16.518 155.708 15.906C156.824 15.276 158.102 14.961 159.542 14.961C160.946 14.961 162.188 15.267 163.268 15.879C164.348 16.491 165.176 17.337 165.752 18.417C166.346 19.479 166.643 20.685 166.643 22.035ZM164.105 21.522C164.105 20.586 163.898 19.785 163.484 19.119C163.07 18.435 162.503 17.922 161.783 17.58C161.081 17.22 160.298 17.04 159.434 17.04C158.192 17.04 157.13 17.436 156.248 18.228C155.384 19.02 154.889 20.118 154.763 21.522H164.105Z" fill="url(#paint0_linear)"/>
<path d="M29.8395 29.126C28.3635 29.126 27.1515 28.778 26.2035 28.082C25.2555 27.374 24.7455 26.366 24.6735 25.058H28.4355C28.4715 25.502 28.6035 25.826 28.8315 26.03C29.0595 26.234 29.3535 26.336 29.7135 26.336C30.0375 26.336 30.3015 26.258 30.5055 26.102C30.7215 25.934 30.8295 25.706 30.8295 25.418C30.8295 25.046 30.6555 24.758 30.3075 24.554C29.9595 24.35 29.3955 24.122 28.6155 23.87C27.7875 23.594 27.1155 23.33 26.5995 23.078C26.0955 22.814 25.6515 22.436 25.2675 21.944C24.8955 21.44 24.7095 20.786 24.7095 19.982C24.7095 19.166 24.9135 18.47 25.3215 17.894C25.7295 17.306 26.2935 16.862 27.0135 16.562C27.7335 16.262 28.5495 16.112 29.4615 16.112C30.9375 16.112 32.1135 16.46 32.9895 17.156C33.8775 17.84 34.3515 18.806 34.4115 20.054H30.5775C30.5655 19.67 30.4455 19.382 30.2175 19.19C30.0015 18.998 29.7195 18.902 29.3715 18.902C29.1075 18.902 28.8915 18.98 28.7235 19.136C28.5555 19.292 28.4715 19.514 28.4715 19.802C28.4715 20.042 28.5615 20.252 28.7415 20.432C28.9335 20.6 29.1675 20.75 29.4435 20.882C29.7195 21.002 30.1275 21.158 30.6675 21.35C31.4715 21.626 32.1315 21.902 32.6475 22.178C33.1755 22.442 33.6255 22.82 33.9975 23.312C34.3815 23.792 34.5735 24.404 34.5735 25.148C34.5735 25.904 34.3815 26.582 33.9975 27.182C33.6255 27.782 33.0795 28.256 32.3595 28.604C31.6515 28.952 30.8115 29.126 29.8395 29.126ZM47.9316 16.31L43.4676 24.968V29H39.9216V24.968L35.4576 16.31H39.4896L41.7216 21.206L43.9536 16.31H47.9316ZM53.9827 29.126C52.5067 29.126 51.2947 28.778 50.3467 28.082C49.3987 27.374 48.8887 26.366 48.8167 25.058H52.5787C52.6147 25.502 52.7467 25.826 52.9747 26.03C53.2027 26.234 53.4967 26.336 53.8567 26.336C54.1807 26.336 54.4447 26.258 54.6487 26.102C54.8647 25.934 54.9727 25.706 54.9727 25.418C54.9727 25.046 54.7987 24.758 54.4507 24.554C54.1027 24.35 53.5387 24.122 52.7587 23.87C51.9307 23.594 51.2587 23.33 50.7427 23.078C50.2387 22.814 49.7947 22.436 49.4107 21.944C49.0387 21.44 48.8527 20.786 48.8527 19.982C48.8527 19.166 49.0567 18.47 49.4647 17.894C49.8727 17.306 50.4367 16.862 51.1567 16.562C51.8767 16.262 52.6927 16.112 53.6047 16.112C55.0807 16.112 56.2567 16.46 57.1327 17.156C58.0207 17.84 58.4947 18.806 58.5547 20.054H54.7207C54.7087 19.67 54.5887 19.382 54.3607 19.19C54.1447 18.998 53.8627 18.902 53.5147 18.902C53.2507 18.902 53.0347 18.98 52.8667 19.136C52.6987 19.292 52.6147 19.514 52.6147 19.802C52.6147 20.042 52.7047 20.252 52.8847 20.432C53.0767 20.6 53.3107 20.75 53.5867 20.882C53.8627 21.002 54.2707 21.158 54.8107 21.35C55.6147 21.626 56.2747 21.902 56.7907 22.178C57.3187 22.442 57.7687 22.82 58.1407 23.312C58.5247 23.792 58.7167 24.404 58.7167 25.148C58.7167 25.904 58.5247 26.582 58.1407 27.182C57.7687 27.782 57.2227 28.256 56.5027 28.604C55.7947 28.952 54.9547 29.126 53.9827 29.126Z" fill="#86FBFB"/>
<path d="M29.8395 29.126C28.3635 29.126 27.1515 28.778 26.2035 28.082C25.2555 27.374 24.7455 26.366 24.6735 25.058H28.4355C28.4715 25.502 28.6035 25.826 28.8315 26.03C29.0595 26.234 29.3535 26.336 29.7135 26.336C30.0375 26.336 30.3015 26.258 30.5055 26.102C30.7215 25.934 30.8295 25.706 30.8295 25.418C30.8295 25.046 30.6555 24.758 30.3075 24.554C29.9595 24.35 29.3955 24.122 28.6155 23.87C27.7875 23.594 27.1155 23.33 26.5995 23.078C26.0955 22.814 25.6515 22.436 25.2675 21.944C24.8955 21.44 24.7095 20.786 24.7095 19.982C24.7095 19.166 24.9135 18.47 25.3215 17.894C25.7295 17.306 26.2935 16.862 27.0135 16.562C27.7335 16.262 28.5495 16.112 29.4615 16.112C30.9375 16.112 32.1135 16.46 32.9895 17.156C33.8775 17.84 34.3515 18.806 34.4115 20.054H30.5775C30.5655 19.67 30.4455 19.382 30.2175 19.19C30.0015 18.998 29.7195 18.902 29.3715 18.902C29.1075 18.902 28.8915 18.98 28.7235 19.136C28.5555 19.292 28.4715 19.514 28.4715 19.802C28.4715 20.042 28.5615 20.252 28.7415 20.432C28.9335 20.6 29.1675 20.75 29.4435 20.882C29.7195 21.002 30.1275 21.158 30.6675 21.35C31.4715 21.626 32.1315 21.902 32.6475 22.178C33.1755 22.442 33.6255 22.82 33.9975 23.312C34.3815 23.792 34.5735 24.404 34.5735 25.148C34.5735 25.904 34.3815 26.582 33.9975 27.182C33.6255 27.782 33.0795 28.256 32.3595 28.604C31.6515 28.952 30.8115 29.126 29.8395 29.126ZM47.9316 16.31L43.4676 24.968V29H39.9216V24.968L35.4576 16.31H39.4896L41.7216 21.206L43.9536 16.31H47.9316ZM53.9827 29.126C52.5067 29.126 51.2947 28.778 50.3467 28.082C49.3987 27.374 48.8887 26.366 48.8167 25.058H52.5787C52.6147 25.502 52.7467 25.826 52.9747 26.03C53.2027 26.234 53.4967 26.336 53.8567 26.336C54.1807 26.336 54.4447 26.258 54.6487 26.102C54.8647 25.934 54.9727 25.706 54.9727 25.418C54.9727 25.046 54.7987 24.758 54.4507 24.554C54.1027 24.35 53.5387 24.122 52.7587 23.87C51.9307 23.594 51.2587 23.33 50.7427 23.078C50.2387 22.814 49.7947 22.436 49.4107 21.944C49.0387 21.44 48.8527 20.786 48.8527 19.982C48.8527 19.166 49.0567 18.47 49.4647 17.894C49.8727 17.306 50.4367 16.862 51.1567 16.562C51.8767 16.262 52.6927 16.112 53.6047 16.112C55.0807 16.112 56.2567 16.46 57.1327 17.156C58.0207 17.84 58.4947 18.806 58.5547 20.054H54.7207C54.7087 19.67 54.5887 19.382 54.3607 19.19C54.1447 18.998 53.8627 18.902 53.5147 18.902C53.2507 18.902 53.0347 18.98 52.8667 19.136C52.6987 19.292 52.6147 19.514 52.6147 19.802C52.6147 20.042 52.7047 20.252 52.8847 20.432C53.0767 20.6 53.3107 20.75 53.5867 20.882C53.8627 21.002 54.2707 21.158 54.8107 21.35C55.6147 21.626 56.2747 21.902 56.7907 22.178C57.3187 22.442 57.7687 22.82 58.1407 23.312C58.5247 23.792 58.7167 24.404 58.7167 25.148C58.7167 25.904 58.5247 26.582 58.1407 27.182C57.7687 27.782 57.2227 28.256 56.5027 28.604C55.7947 28.952 54.9547 29.126 53.9827 29.126Z" fill="url(#paint1_linear)"/>
<path d="M9.50457 20.9393C8.91878 21.5251 8.91878 22.4749 9.50457 23.0607L19.0505 32.6066C19.6363 33.1924 20.586 33.1924 21.1718 32.6066C21.7576 32.0208 21.7576 31.0711 21.1718 30.4853L12.6865 22L21.1718 13.5147C21.7576 12.9289 21.7576 11.9792 21.1718 11.3934C20.586 10.8076 19.6363 10.8076 19.0505 11.3934L9.50457 20.9393ZM11.6087 20.5H10.5652V23.5H11.6087V20.5Z" fill="#97FB8E"/>
<path d="M73.5824 23.0607C74.1682 22.4749 74.1682 21.5251 73.5824 20.9393L64.0364 11.3934C63.4507 10.8076 62.5009 10.8076 61.9151 11.3934C61.3293 11.9792 61.3293 12.9289 61.9151 13.5147L70.4004 22L61.9151 30.4853C61.3293 31.0711 61.3293 32.0208 61.9151 32.6066C62.5009 33.1924 63.4507 33.1924 64.0364 32.6066L73.5824 23.0607ZM70.9565 23.5H72.5217V20.5H70.9565V23.5Z" fill="#97FB8E"/>
<defs>
<linearGradient id="paint0_linear" x1="125.5" y1="0" x2="125.5" y2="41" gradientUnits="userSpaceOnUse">
<stop stop-color="white"/>
<stop offset="1" stop-color="white" stop-opacity="0"/>
</linearGradient>
<linearGradient id="paint1_linear" x1="42.8261" y1="9" x2="42.8261" y2="36" gradientUnits="userSpaceOnUse">
<stop stop-color="white"/>
<stop offset="1" stop-color="white" stop-opacity="0"/>
</linearGradient>
</defs>
</svg>
