<svg id="svg" xmlns="http://www.w3.org/2000/svg" xmlns:xlink="http://www.w3.org/1999/xlink" width="400" height="400.42194092827003" viewBox="0, 0, 400,400.42194092827003">
    <g id="svgg">
        <path id="antena" d="M197.330 56.151 C 187.501 59.371,186.180 70.700,194.900 76.996 L 196.000 77.790 196.000 99.503 L 196.000 121.216 182.216 121.190 C 166.327 121.159,166.450 121.134,163.851 124.962 C 162.822 126.479,162.800 126.650,162.800 133.048 L 162.800 139.585 168.500 139.293 C 176.000 138.908,225.337 138.915,232.918 139.302 L 238.836 139.604 238.779 133.585 C 238.717 126.999,238.476 126.058,236.245 123.666 C 233.909 121.163,234.170 121.200,219.020 121.200 L 205.200 121.200 205.200 99.547 L 205.200 77.894 206.061 77.147 C 206.535 76.736,207.068 76.400,207.246 76.400 C 208.234 76.400,210.796 73.018,211.416 70.896 C 214.089 61.747,206.022 53.303,197.330 56.151 " stroke="none" fill="#04acdc" fill-rule="evenodd"></path>        
    </g>
</svg>