<svg version="1.0" xmlns="http://www.w3.org/2000/svg"
 width="948.000000pt" height="949.000000pt" viewBox="0 0 948.000000 949.000000"
 preserveAspectRatio="xMidYMid meet">
<g transform="translate(0.000000,949.000000) scale(0.100000,-0.100000)"
fill="#000000" stroke="none">
<path d="M4017 6190 c-774 -50 -1474 -429 -1944 -1054 -258 -344 -434 -776
-499 -1226 -21 -146 -32 -1063 -15 -1232 37 -369 175 -663 430 -919 259 -258
569 -401 933 -429 163 -13 3503 -13 3666 0 364 28 674 171 933 429 210 211
333 435 405 741 15 66 18 144 22 655 4 618 0 704 -43 920 -101 503 -331 943
-685 1308 -154 160 -276 263 -442 374 -345 229 -722 367 -1158 424 -104 13
-1417 21 -1603 9z m1493 -1411 c276 -11 396 -26 555 -69 625 -167 1086 -658
1164 -1241 35 -256 -134 -488 -409 -566 -62 -17 -155 -18 -2065 -18 -1885 0
-2004 1 -2064 18 -109 30 -190 76 -267 152 -128 126 -171 265 -140 449 110
647 663 1152 1369 1251 281 39 1206 51 1857 24z"/>
</g>
</svg>
