<?xml version="1.0" encoding="UTF-8" standalone="no"?><!-- Generator: Gravit.io --><svg xmlns="http://www.w3.org/2000/svg" xmlns:xlink="http://www.w3.org/1999/xlink" style="isolation:isolate" viewBox="0 0 400 400.422" width="400pt" height="400.422pt"><defs><clipPath id="_clipPath_uZsxPLfBhnRm2fBs1BfezESsglFNzG9e"><rect width="400" height="400.422"/></clipPath></defs><g clip-path="url(#_clipPath_uZsxPLfBhnRm2fBs1BfezESsglFNzG9e)"><path d=" M 167.4 138.796 C 164.98 139.067 162.951 139.172 162.89 139.029 C 162.394 137.851 139.329 143.452 137.044 145.305 C 136.8 145.503 134.89 146.384 132.8 147.261 C 128.537 149.054 121.331 152.77 120.577 153.565 C 120.306 153.851 118.179 155.296 115.85 156.775 C 113.521 158.253 110.671 160.376 109.515 161.491 C 108.359 162.606 107.217 163.519 106.977 163.519 C 106.737 163.519 105.114 164.953 103.37 166.705 C 101.627 168.458 99.712 170.269 99.117 170.731 C 97.279 172.155 86.8 184.923 86.8 185.739 C 86.8 185.96 85.903 187.314 84.806 188.75 C 82.673 191.542 80.423 195.552 78.121 200.657 C 77.336 202.398 76.563 203.917 76.403 204.033 C 75.525 204.669 72.008 214.282 70.226 220.914 C 69.634 223.119 68.982 225.303 68.778 225.767 C 67.634 228.369 66.202 237.993 65.577 247.291 C 64.92 257.068 65.31 295.9 66.112 300.472 C 66.812 304.459 68.371 310.505 68.779 310.805 C 68.936 310.921 69.568 312.484 70.183 314.277 C 71.726 318.78 74.976 324.84 77.859 328.591 C 79.189 330.322 80.58 332.226 80.951 332.823 C 83.072 336.24 97.68 347.943 99.823 347.943 C 100.109 347.943 100.588 348.202 100.887 348.517 C 102.299 350.007 110.46 352.764 117.6 354.163 C 122.653 355.153 276.433 355.327 282.4 354.35 C 290.401 353.04 296.534 350.943 302.4 347.512 C 310.108 343.003 309.784 343.223 312.738 340.454 C 317.789 335.716 320.114 333.317 320.607 332.328 C 320.896 331.748 321.878 330.486 322.787 329.524 C 324.575 327.633 329.344 319.182 330.077 316.608 C 330.324 315.738 330.665 315.026 330.835 315.026 C 331.638 315.026 334.109 305.955 335.032 299.622 C 335.861 293.934 335.835 248.137 334.998 240.594 C 334.095 232.448 331.567 220.07 330.806 220.07 C 330.638 220.07 330.39 219.489 330.255 218.779 C 329.792 216.334 326.599 207.614 324.779 203.822 C 321.088 196.133 315.957 187.152 315.255 187.152 C 315.086 187.152 314.663 186.535 314.316 185.781 C 312.352 181.523 294.455 162.253 292.465 162.253 C 292.225 162.253 291.853 161.92 291.639 161.514 C 291.425 161.108 289.754 159.763 287.925 158.525 C 286.096 157.288 283.34 155.418 281.8 154.369 C 278.362 152.028 272.533 148.938 268 147.053 C 266.13 146.275 264.51 145.511 264.4 145.357 C 263.345 143.874 239.828 138.105 238.6 139.029 C 238.38 139.194 236.04 139.085 233.4 138.785 C 227.029 138.061 173.867 138.071 167.4 138.796 Z  M 232 201.099 C 242.098 201.524 249.249 202.19 249.6 202.74 C 249.71 202.913 250.97 203.293 252.4 203.584 C 258.461 204.821 269.847 209.15 271.888 210.993 C 272.356 211.415 273.844 212.395 275.195 213.169 C 277.923 214.733 281.601 217.613 284.377 220.361 C 285.38 221.354 286.319 222.169 286.465 222.173 C 286.775 222.181 292.885 229.644 294.542 232.039 C 295.169 232.946 296.507 235.324 297.515 237.325 C 298.522 239.324 299.577 241.204 299.858 241.502 C 300.14 241.8 300.535 242.655 300.738 243.401 C 300.94 244.148 301.478 245.738 301.932 246.934 C 308.016 262.952 304.849 275.12 292.773 282.123 C 286.894 285.533 295.245 285.228 203.4 285.386 C 116.152 285.536 112.455 285.456 110.8 283.41 C 110.69 283.275 109.43 282.593 108 281.897 C 99.984 277.993 95.124 268.479 96.387 259.16 C 97.069 254.132 99.239 245.566 99.982 244.97 C 100.127 244.853 100.489 244.094 100.786 243.281 C 102.274 239.213 106.236 232.183 108.446 229.687 C 109.122 228.924 110.096 227.611 110.612 226.768 C 111.128 225.925 112.842 224.026 114.422 222.547 C 116.003 221.069 118.039 219.133 118.948 218.245 C 119.856 217.358 121.59 216.008 122.8 215.247 C 126.557 212.884 129.391 211.01 129.6 210.751 C 130.666 209.427 142.886 204.78 148.4 203.603 C 149.83 203.297 151.09 202.92 151.2 202.766 C 152.588 200.815 201.325 199.81 232 201.099 Z " fill-rule="evenodd" fill="rgb(4,68,132)" vector-effect="non-scaling-stroke" stroke-width="0.5" stroke="rgb(115,168,247)" stroke-linejoin="miter" stroke-linecap="butt" stroke-miterlimit="4"/></g></svg>