<svg id="svg" xmlns="http://www.w3.org/2000/svg" xmlns:xlink="http://www.w3.org/1999/xlink" width="400" height="400.42194092827003" viewBox="0, 0, 400,400.42194092827003">
    <g id="svgg">
        <path id="antena" d="M197.330 56.151 C 187.501 59.371,186.180 70.700,194.900 76.996 L 196.000 77.790 196.000 99.503 L 196.000 121.216 182.216 121.190 C 166.327 121.159,166.450 121.134,163.851 124.962 C 162.822 126.479,162.800 126.650,162.800 133.048 L 162.800 139.585 168.500 139.293 C 176.000 138.908,225.337 138.915,232.918 139.302 L 238.836 139.604 238.779 133.585 C 238.717 126.999,238.476 126.058,236.245 123.666 C 233.909 121.163,234.170 121.200,219.020 121.200 L 205.200 121.200 205.200 99.547 L 205.200 77.894 206.061 77.147 C 206.535 76.736,207.068 76.400,207.246 76.400 C 208.234 76.400,210.796 73.018,211.416 70.896 C 214.089 61.747,206.022 53.303,197.330 56.151 " stroke="none" fill="#04acdc" fill-rule="evenodd"></path>        
    </g>
</svg>

<svg id="svg" xmlns="http://www.w3.org/2000/svg" xmlns:xlink="http://www.w3.org/1999/xlink" width="400" height="400.42194092827003" viewBox="0, 0, 400,400.42194092827003">
    <g id="svgg">
        <path id="cabeca" d="M167.400 139.767 C 164.980 140.024,162.951 140.124,162.890 139.988 C 162.394 138.872,139.329 144.180,137.044 145.937 C 136.800 146.124,134.890 146.959,132.800 147.791 C 128.537 149.490,121.331 153.012,120.577 153.766 C 120.306 154.037,118.179 155.406,115.850 156.808 C 113.521 158.209,110.671 160.221,109.515 161.278 C 108.359 162.335,107.217 163.200,106.977 163.200 C 106.737 163.200,105.114 164.559,103.370 166.220 C 101.627 167.881,99.712 169.598,99.117 170.036 C 97.279 171.385,86.800 183.487,86.800 184.261 C 86.800 184.470,85.903 185.753,84.806 187.114 C 82.673 189.761,80.423 193.561,78.121 198.400 C 77.336 200.050,76.563 201.490,76.403 201.600 C 75.525 202.203,72.008 211.314,70.226 217.600 C 69.634 219.690,68.982 221.760,68.778 222.200 C 67.634 224.666,66.202 233.788,65.577 242.600 C 64.920 251.867,65.310 288.673,66.112 293.006 C 66.812 296.785,68.371 302.515,68.779 302.800 C 68.936 302.910,69.568 304.391,70.183 306.091 C 71.726 310.359,74.976 316.102,77.859 319.658 C 79.189 321.298,80.580 323.103,80.951 323.669 C 83.072 326.907,97.680 338.000,99.823 338.000 C 100.109 338.000,100.588 338.245,100.887 338.544 C 102.299 339.956,110.460 342.569,117.600 343.895 C 122.653 344.833,276.433 344.998,282.400 344.072 C 290.401 342.831,296.534 340.843,302.400 337.591 C 310.108 333.317,309.784 333.526,312.738 330.901 C 317.789 326.411,320.114 324.137,320.607 323.200 C 320.896 322.650,321.878 321.454,322.787 320.542 C 324.575 318.750,329.344 310.740,330.077 308.300 C 330.324 307.475,330.665 306.800,330.835 306.800 C 331.638 306.800,334.109 298.203,335.032 292.200 C 335.861 286.809,335.835 243.402,334.998 236.253 C 334.095 228.532,331.567 216.800,330.806 216.800 C 330.638 216.800,330.390 216.249,330.255 215.576 C 329.792 213.259,326.599 204.994,324.779 201.400 C 321.088 194.112,315.957 185.600,315.255 185.600 C 315.086 185.600,314.663 185.015,314.316 184.300 C 312.352 180.265,294.455 162.000,292.465 162.000 C 292.225 162.000,291.853 161.685,291.639 161.300 C 291.425 160.915,289.754 159.640,287.925 158.467 C 286.096 157.294,283.340 155.522,281.800 154.528 C 278.362 152.309,272.533 149.380,268.000 147.593 C 266.130 146.856,264.510 146.132,264.400 145.986 C 263.345 144.580,239.828 139.112,238.600 139.988 C 238.380 140.145,236.040 140.041,233.400 139.757 C 227.029 139.071,173.867 139.080,167.400 139.767 M232.000 198.819 C 242.098 199.222,249.249 199.853,249.600 200.374 C 249.710 200.538,250.970 200.898,252.400 201.174 C 258.461 202.347,269.847 206.450,271.888 208.197 C 272.356 208.597,273.844 209.525,275.195 210.259 C 277.923 211.741,281.601 214.471,284.377 217.076 C 285.380 218.017,286.319 218.789,286.465 218.793 C 286.775 218.801,292.885 225.874,294.542 228.144 C 295.169 229.004,296.507 231.258,297.515 233.154 C 298.522 235.049,299.577 236.831,299.858 237.113 C 300.140 237.396,300.535 238.206,300.738 238.913 C 300.940 239.621,301.478 241.128,301.932 242.262 C 308.016 257.444,304.849 268.977,292.773 275.615 C 286.894 278.847,295.245 278.558,203.400 278.707 C 116.152 278.849,112.455 278.774,110.800 276.834 C 110.690 276.706,109.430 276.060,108.000 275.400 C 99.984 271.700,95.124 262.683,96.387 253.850 C 97.069 249.084,99.239 240.965,99.982 240.400 C 100.127 240.290,100.489 239.570,100.786 238.800 C 102.274 234.944,106.236 228.281,108.446 225.915 C 109.122 225.192,110.096 223.947,110.612 223.148 C 111.128 222.349,112.842 220.549,114.422 219.148 C 116.003 217.747,118.039 215.912,118.948 215.070 C 119.856 214.229,121.590 212.950,122.800 212.229 C 126.557 209.989,129.391 208.213,129.600 207.967 C 130.666 206.712,142.886 202.308,148.400 201.192 C 149.830 200.902,151.090 200.545,151.200 200.399 C 152.588 198.550,201.325 197.597,232.000 198.819 " stroke="none" fill="#044484" fill-rule="evenodd"></path>        
    </g>
</svg>

<svg version="1.0" xmlns="http://www.w3.org/2000/svg"
 width="948.000000pt" height="949.000000pt" viewBox="0 0 948.000000 949.000000"
 preserveAspectRatio="xMidYMid meet">
<g transform="translate(0.000000,949.000000) scale(0.100000,-0.100000)"
fill="#000000" stroke="none">
<path d="M4017 6190 c-774 -50 -1474 -429 -1944 -1054 -258 -344 -434 -776
-499 -1226 -21 -146 -32 -1063 -15 -1232 37 -369 175 -663 430 -919 259 -258
569 -401 933 -429 163 -13 3503 -13 3666 0 364 28 674 171 933 429 210 211
333 435 405 741 15 66 18 144 22 655 4 618 0 704 -43 920 -101 503 -331 943
-685 1308 -154 160 -276 263 -442 374 -345 229 -722 367 -1158 424 -104 13
-1417 21 -1603 9z m1493 -1411 c276 -11 396 -26 555 -69 625 -167 1086 -658
1164 -1241 35 -256 -134 -488 -409 -566 -62 -17 -155 -18 -2065 -18 -1885 0
-2004 1 -2064 18 -109 30 -190 76 -267 152 -128 126 -171 265 -140 449 110
647 663 1152 1369 1251 281 39 1206 51 1857 24z"/>
</g>
</svg>
