<svg width="20" height="19" viewBox="0 0 20 19" fill="none" xmlns="http://www.w3.org/2000/svg">
<path d="M8.16667 9.59167H3.5C3.33431 9.59167 3.2 9.45735 3.2 9.29167V3.375C3.2 3.20931 3.33431 3.075 3.5 3.075H8.16667C8.33235 3.075 8.46667 3.20931 8.46667 3.375V9.29167C8.46667 9.45735 8.33235 9.59167 8.16667 9.59167ZM8.16667 15.925H3.5C3.33431 15.925 3.2 15.7907 3.2 15.625V12.875C3.2 12.7093 3.33431 12.575 3.5 12.575H8.16667C8.33235 12.575 8.46667 12.7093 8.46667 12.875V15.625C8.46667 15.7907 8.33235 15.925 8.16667 15.925ZM16.5 15.925H11.8333C11.6676 15.925 11.5333 15.7907 11.5333 15.625V9.70833C11.5333 9.54265 11.6676 9.40833 11.8333 9.40833H16.5C16.6657 9.40833 16.8 9.54265 16.8 9.70833V15.625C16.8 15.7907 16.6657 15.925 16.5 15.925ZM11.5333 6.125V3.375C11.5333 3.20931 11.6676 3.075 11.8333 3.075H16.5C16.6657 3.075 16.8 3.20931 16.8 3.375V6.125C16.8 6.29069 16.6657 6.425 16.5 6.425H11.8333C11.6676 6.425 11.5333 6.29069 11.5333 6.125Z" stroke="#109CF1" stroke-width="1.4"/>
</svg>
