<svg width="300" height="36" viewBox="0 0 300 36" fill="none" xmlns="http://www.w3.org/2000/svg">
<path d="M143.75 15.1912C145.294 16.7509 146.065 18.6373 146.065 20.8126C146.065 22.9888 145.294 24.8743 143.75 26.398C142.17 27.9568 140.261 28.7524 138.094 28.7524C135.926 28.7524 134.05 27.9568 132.51 26.398C130.929 24.8743 130.156 22.9888 130.156 20.8126C130.156 18.6373 130.929 16.7509 132.51 15.1912C134.05 13.6333 135.926 12.8701 138.094 12.8701C140.261 12.8701 142.17 13.6333 143.75 15.1912ZM141.069 23.7493C141.875 22.915 142.281 21.9349 142.319 20.8126C142.281 19.6156 141.875 18.6373 141.105 17.8399C140.261 17.0029 139.269 16.606 138.094 16.642C136.954 16.606 135.963 17.0029 135.152 17.8399C134.344 18.6373 133.902 19.6156 133.902 20.8126C133.902 21.9349 134.344 22.915 135.152 23.7493C135.963 24.5845 136.954 24.9805 138.094 24.9805C139.269 24.9805 140.261 24.5845 141.069 23.7493Z" fill="white"/>
<path d="M87.7944 8.98925C85.0406 8.95505 82.7609 9.89645 80.8515 11.8558C78.9011 13.7773 77.9473 16.0615 77.9473 18.7812C77.9473 21.4642 78.9011 23.8222 80.8515 25.7437C82.7609 27.6301 85.0406 28.5732 87.7944 28.5732C89.9992 28.5732 92.0199 27.9207 93.7816 26.5788C95.5105 25.2019 96.6485 23.4955 97.2357 21.3913H93.2318C92.7166 22.4082 91.9816 23.2426 91.0643 23.8933C90.0357 24.5125 88.9688 24.8365 87.7944 24.8365C86.1047 24.8365 84.6722 24.2208 83.4959 23.0608C82.285 21.8637 81.6959 20.4499 81.7315 18.7812C81.6959 17.1145 82.285 15.6997 83.4959 14.5018C84.6722 13.3408 86.1047 12.7269 87.7944 12.7269C88.9688 12.7269 90.0357 13.0527 91.0643 13.7052C91.9816 14.3226 92.7166 15.192 93.2318 16.2064H97.2357C96.6485 14.1049 95.5105 12.3606 93.7816 11.0223C92.0199 9.64445 89.9992 8.95505 87.7944 8.98925Z" fill="white"/>
<path d="M112.043 12.8367C113.697 12.7989 115.166 13.1238 116.488 13.8132C117.739 14.4657 118.401 15.7356 118.401 17.5491V28.6452H114.578V27.0855C113.404 28.1034 111.75 28.6092 109.656 28.6452C108.37 28.6092 107.306 28.2483 106.531 27.594C105.652 26.7966 105.211 25.7076 105.246 24.3666C105.211 22.4433 105.909 21.1032 107.341 20.268C108.187 19.7964 109.287 19.4715 110.65 19.2888L113.587 18.8181C114.176 18.5661 114.47 18.1656 114.47 17.658C114.433 17.0415 114.248 16.6059 113.807 16.389C113.367 16.1343 112.741 15.9876 111.934 16.0254C110.979 15.9876 110.317 16.2423 109.914 16.7508C109.656 17.0415 109.436 17.4762 109.363 18.1287H105.54C105.652 16.7508 105.982 15.6636 106.643 14.8293C107.672 13.4856 109.472 12.7989 112.043 12.8367ZM113.661 21.357L111.75 21.8286C110.943 21.9357 110.317 22.1175 109.949 22.3344C109.326 22.734 109.031 23.2767 109.031 24.0399C109.031 24.7284 109.214 25.2018 109.582 25.5258C109.949 25.8156 110.392 25.9614 110.943 25.9614C111.823 25.9614 112.595 25.7076 113.329 25.2018C114.028 24.6933 114.395 23.7861 114.395 22.4811V20.9565L113.661 21.357Z" fill="white"/>
<path d="M99.1855 28.6453H103.005V8.98926H99.1855V28.6453Z" fill="white"/>
<path d="M127.328 13.3785C126.3 13.7772 125.381 14.4657 124.609 15.5187V13.5963L120.971 13.5585V28.6452H124.757V21.4272C124.757 20.1969 124.903 19.3257 125.233 18.7812C125.493 18.2016 125.969 17.73 126.555 17.3322C127.218 16.8948 127.915 16.6788 128.651 16.6788L129.826 16.7499L129.789 12.906L128.797 12.9789L127.328 13.3785Z" fill="white"/>
<path d="M146.724 13.4505L155.95 4.34973L153.521 1.95483L144.301 11.0583L146.724 13.4505Z" fill="white"/>
<path d="M136.844 9.82444H140.26V0.0693359H136.844V9.82444Z" fill="white"/>
<path d="M148.416 20.5964H158.521V17.2214H148.416V20.5964Z" fill="white"/>
<path d="M173.573 14.3128L170.595 17.29C170.279 16.9588 169.965 16.7203 169.654 16.5736C169.343 16.4269 168.96 16.354 168.506 16.354C167.824 16.354 167.23 16.6051 166.721 17.1064C166.212 17.6077 165.958 18.3169 165.958 19.2322V28.6246H162.016V13.0195H165.868V14.5189C166.264 14.0491 166.817 13.6522 167.529 13.3291C168.239 13.006 169.01 12.844 169.84 12.844C170.65 12.844 171.341 12.9565 171.914 13.1824C172.487 13.4074 173.04 13.7845 173.573 14.3128Z" fill="white"/>
<path d="M187.503 22.0285H177.604C177.604 23.0527 177.914 23.8888 178.531 24.5368C179.148 25.1857 179.995 25.5097 181.072 25.5097C181.911 25.5097 182.583 25.3981 183.087 25.1731C183.591 24.949 184.115 24.5737 184.658 24.0472L187.044 26.3431C186.184 27.1909 185.305 27.8128 184.406 28.2079C183.507 28.6021 182.385 28.8001 181.042 28.8001C178.908 28.8001 177.155 28.1935 175.782 26.9794C174.409 25.7653 173.723 23.7061 173.723 20.8C173.723 19.153 174.009 17.7265 174.582 16.5223C175.154 15.3181 175.962 14.4046 177.004 13.78C178.047 13.1563 179.249 12.844 180.613 12.844C182.035 12.844 183.267 13.1608 184.309 13.7944C185.352 14.4289 186.145 15.3181 186.687 16.4638C187.231 17.6095 187.503 18.8893 187.503 20.3032V22.0285ZM183.621 19.3672C183.591 18.7435 183.468 18.1828 183.251 17.6851C183.033 17.2072 182.7 16.8202 182.25 16.5223C181.8 16.2253 181.255 16.0759 180.613 16.0759C179.99 16.0759 179.452 16.2253 178.998 16.5223C178.543 16.8202 178.203 17.2072 177.976 17.6851C177.758 18.2215 177.635 18.7822 177.604 19.3672H183.621Z" fill="white"/>
<path d="M201.725 23.7106C201.725 25.3684 201.1 26.6311 199.851 27.4987C198.601 28.3663 196.993 28.8001 195.027 28.8001C194.069 28.8001 193.22 28.7461 192.479 28.639C191.738 28.5319 191.012 28.315 190.301 27.9883C189.589 27.6616 188.917 27.1864 188.285 26.5627L190.864 24.0175C191.851 24.9931 193.259 25.48 195.087 25.48C195.837 25.48 196.489 25.3468 197.043 25.0777C197.596 24.8104 197.872 24.4027 197.872 23.8573C197.872 23.0086 197.319 22.5307 196.213 22.4236L193.723 22.1896C192.222 22.0339 191.076 21.61 190.286 20.917C189.495 20.2249 189.1 19.1917 189.1 17.8165C189.1 16.2667 189.69 15.0508 190.871 14.1679C192.052 13.2859 193.496 12.844 195.205 12.844C197.922 12.844 199.937 13.4533 201.251 14.6719L198.821 17.1001C198.03 16.3981 196.806 16.0471 195.146 16.0471C194.406 16.0471 193.845 16.1884 193.464 16.471C193.084 16.7545 192.894 17.11 192.894 17.5384C192.894 18.3484 193.442 18.7966 194.539 18.8839L197.028 19.1332C198.065 19.2403 198.932 19.4842 199.629 19.864C200.325 20.2447 200.849 20.764 201.199 21.4219C201.55 22.0798 201.725 22.843 201.725 23.7106Z" fill="white"/>
<path d="M203.74 28.6246H207.682V13.0195H203.74V28.6246Z" fill="white"/>
<path d="M208.171 8.61765C208.171 9.29985 207.934 9.88035 207.46 10.3583C206.986 10.8362 206.403 11.0747 205.711 11.0747C205.03 11.0747 204.445 10.8335 203.956 10.3502C203.467 9.86775 203.223 9.29085 203.223 8.61765C203.223 7.94535 203.467 7.37205 203.956 6.89955C204.445 6.42615 205.03 6.18945 205.711 6.18945C206.068 6.18945 206.39 6.25065 206.682 6.37305C206.973 6.49455 207.233 6.66735 207.46 6.89235C207.687 7.11645 207.862 7.37205 207.986 7.66005C208.109 7.94715 208.171 8.26665 208.171 8.61765Z" fill="white"/>
<path d="M223.359 28.6246H219.506V27.1549C218.982 27.7426 218.405 28.1638 217.777 28.4185C217.149 28.6732 216.419 28.8001 215.589 28.8001C215.063 28.8001 214.564 28.7443 214.09 28.6318C213.615 28.5202 213.169 28.3564 212.754 28.1422C212.338 27.928 211.987 27.6787 211.701 27.3961C211.225 26.9479 210.866 26.3647 210.624 25.6483C210.381 24.9319 210.231 24.2101 210.171 23.4838C210.112 22.7575 210.082 21.8629 210.082 20.8C210.082 19.747 210.112 18.8605 210.171 18.1387C210.231 17.4169 210.384 16.7005 210.631 15.9886C210.878 15.2767 211.235 14.6971 211.701 14.248C212.146 13.8097 212.707 13.4659 213.385 13.2175C214.062 12.9682 214.787 12.844 215.559 12.844C216.39 12.844 217.114 12.9619 217.733 13.1968C218.352 13.4317 218.912 13.8331 219.418 14.401V7.30176H223.359V28.6246ZM219.418 20.8C219.418 19.8091 219.353 19.0045 219.225 18.388C219.097 17.7706 218.835 17.2774 218.439 16.9084C218.044 16.5385 217.471 16.354 216.72 16.354C215.96 16.354 215.387 16.5385 215.001 16.9084C214.617 17.2774 214.362 17.7733 214.239 18.3952C214.115 19.0171 214.053 19.8181 214.053 20.8C214.053 21.7918 214.115 22.6009 214.239 23.2273C214.362 23.8546 214.618 24.3541 215.01 24.7285C215.399 25.1029 215.97 25.2901 216.72 25.2901C217.462 25.2901 218.032 25.1029 218.432 24.7285C218.832 24.3541 219.097 23.8573 219.225 23.2345C219.353 22.6126 219.418 21.8017 219.418 20.8ZM290.152 28.6246H286.299V27.2791C285.786 27.8056 285.23 28.1854 284.632 28.4203C284.034 28.6534 283.297 28.7704 282.417 28.7704C281.538 28.7704 280.763 28.6561 280.091 28.4275C279.419 28.198 278.851 27.8542 278.387 27.3961C277.517 26.5186 277.083 25.3486 277.083 23.8861C277.083 23.0473 277.283 22.285 277.683 21.5974C278.084 20.9098 278.685 20.3662 279.491 19.9666C280.296 19.567 281.291 19.3672 282.476 19.3672H286.21V18.5923C286.21 17.7238 285.981 17.0974 285.522 16.7122C285.062 16.327 284.313 16.1344 283.277 16.1344C282.526 16.1344 281.941 16.228 281.52 16.4125C281.101 16.5979 280.673 16.9345 280.239 17.4214L277.72 14.9941C278.451 14.185 279.246 13.6243 280.105 13.312C280.965 13.0006 282.071 12.844 283.424 12.844C285.637 12.844 287.311 13.3075 288.448 14.2336C289.584 15.1597 290.152 16.5349 290.152 18.3574V28.6246ZM286.21 22.8772V22.0285H283.084C282.382 22.0285 281.839 22.1851 281.454 22.4965C281.069 22.8088 280.877 23.2426 280.877 23.7988C280.877 24.364 281.066 24.805 281.446 25.1218C281.827 25.4386 282.392 25.597 283.143 25.597C283.726 25.597 284.205 25.5484 284.58 25.4512C284.955 25.354 285.306 25.1533 285.633 24.8509C286.018 24.4999 286.21 23.842 286.21 22.8772Z" fill="white"/>
<path d="M239.479 22.0285H229.581C229.581 23.0527 229.89 23.8888 230.507 24.5368C231.125 25.1857 231.972 25.5097 233.049 25.5097C233.888 25.5097 234.56 25.3981 235.064 25.1731C235.567 24.949 236.091 24.5737 236.634 24.0472L239.02 26.3431C238.161 27.1909 237.282 27.8128 236.382 28.2079C235.483 28.6021 234.362 28.8001 233.019 28.8001C230.885 28.8001 229.131 28.1935 227.758 26.9794C226.385 25.7653 225.699 23.7061 225.699 20.8C225.699 19.153 225.986 17.7265 226.558 16.5223C227.131 15.3181 227.939 14.4046 228.981 13.78C230.023 13.1563 231.226 12.844 232.589 12.844C234.012 12.844 235.244 13.1608 236.286 13.7944C237.328 14.4289 238.121 15.3181 238.664 16.4638C239.207 17.6095 239.479 18.8893 239.479 20.3032V22.0285ZM235.597 19.3672C235.567 18.7435 235.444 18.1828 235.226 17.6851C235.009 17.2072 234.675 16.8202 234.227 16.5223C233.776 16.2253 233.231 16.0759 232.589 16.0759C231.966 16.0759 231.428 16.2253 230.973 16.5223C230.519 16.8202 230.178 17.2072 229.952 17.6851C229.734 18.2215 229.611 18.7822 229.581 19.3672H235.597Z" fill="white"/>
<path d="M254.946 28.6246H251.005V19.2025C251.005 18.2197 250.751 17.4988 250.242 17.0407C249.733 16.5835 249.118 16.354 248.397 16.354C247.676 16.354 247.056 16.5835 246.537 17.0407C246.019 17.4988 245.759 18.2197 245.759 19.2025V28.6246H241.818V13.0195H245.671V14.4595C246.174 13.9411 246.77 13.5424 247.456 13.2625C248.143 12.9835 248.862 12.844 249.612 12.844C251.153 12.844 252.398 13.3021 253.346 14.2192C253.949 14.8141 254.366 15.4621 254.598 16.1641C254.83 16.8661 254.946 17.695 254.946 18.6508V28.6246Z" fill="white"/>
<path d="M269.408 26.6707C268.015 28.09 266.272 28.8001 264.177 28.8001C263.308 28.8001 262.468 28.6732 261.659 28.4203C260.848 28.1665 260.095 27.73 259.398 27.1108C258.702 26.4916 258.146 25.6555 257.731 24.6025C257.316 23.5495 257.109 22.2823 257.109 20.8C257.109 19.3087 257.316 18.0415 257.731 16.9975C258.146 15.9544 258.702 15.1255 259.398 14.5117C260.095 13.897 260.853 13.4659 261.673 13.2175C262.493 12.9682 263.327 12.844 264.177 12.844C265.293 12.844 266.269 13.0132 267.103 13.3507C267.939 13.6882 268.706 14.2201 269.408 14.9446L266.726 17.5825C266.33 17.1442 265.935 16.8301 265.54 16.6393C265.146 16.4494 264.691 16.354 264.177 16.354C263.259 16.354 262.512 16.6942 261.939 17.3746C261.347 18.1036 261.05 19.2457 261.05 20.8C261.05 22.384 261.347 23.5405 261.939 24.2695C262.512 24.9499 263.259 25.2901 264.177 25.2901C264.691 25.2901 265.143 25.1929 265.533 24.9976C265.923 24.8023 266.321 24.4909 266.726 24.0616L269.408 26.6707Z" fill="white"/>
<path d="M271.17 28.6246H275.111V13.0195H271.17V28.6246Z" fill="white"/>
<path d="M275.602 8.61765C275.602 9.29985 275.364 9.88035 274.89 10.3583C274.416 10.8362 273.833 11.0747 273.142 11.0747C272.46 11.0747 271.875 10.8335 271.386 10.3502C270.897 9.86775 270.652 9.29085 270.652 8.61765C270.652 7.94535 270.897 7.37205 271.386 6.89955C271.875 6.42615 272.46 6.18945 273.142 6.18945C273.497 6.18945 273.821 6.25065 274.112 6.37305C274.404 6.49455 274.663 6.66735 274.89 6.89235C275.118 7.11645 275.293 7.37205 275.416 7.66005C275.54 7.94715 275.602 8.26665 275.602 8.61765Z" fill="white"/>
<path d="M299.813 28.6246H297.569C296.045 28.6246 294.893 28.1881 294.111 27.316C293.329 26.443 292.938 25.3927 292.938 24.1642V7.30176H296.91V23.9149C296.91 24.3829 297.017 24.7366 297.233 24.976C297.452 25.2145 297.808 25.3342 298.301 25.3342H299.813V28.6246Z" fill="white"/>
<path d="M19.5739 28.6246H15.3511V16.1938L11.2313 24.2812H8.37173L4.2228 16.1938V28.6246H0V7.30176H4.16353L9.79423 18.8254L15.4103 7.30176H19.5739V28.6246Z" fill="white"/>
<path d="M23.0098 28.6246H26.9517V13.0195H23.0098V28.6246Z" fill="white"/>
<path d="M27.4408 8.61765C27.4408 9.29985 27.2037 9.88035 26.7296 10.3583C26.2554 10.8362 25.6727 11.0747 24.9806 11.0747C24.2995 11.0747 23.7141 10.8335 23.2253 10.3502C22.7366 9.86775 22.4922 9.29085 22.4922 8.61765C22.4922 7.94535 22.7366 7.37205 23.2253 6.89955C23.7141 6.42615 24.2995 6.18945 24.9806 6.18945C25.3372 6.18945 25.66 6.25065 25.9518 6.37305C26.2426 6.49455 26.5025 6.66735 26.7296 6.89235C26.9566 7.11645 27.1317 7.37205 27.2557 7.66005C27.3788 7.94715 27.4408 8.26665 27.4408 8.61765Z" fill="white"/>
<path d="M43.1768 28.6246H39.2358V19.2025C39.2358 18.2197 38.9814 17.4988 38.4725 17.0407C37.9637 16.5835 37.3482 16.354 36.6279 16.354C35.9066 16.354 35.2865 16.5835 34.7677 17.0407C34.2497 17.4988 33.9899 18.2197 33.9899 19.2025V28.6246H30.0488V13.0195H33.9014V14.4595C34.4048 13.9411 35.0002 13.5424 35.6868 13.2625C36.3734 12.9835 37.092 12.844 37.8424 12.844C39.3835 12.844 40.6282 13.3021 41.5765 14.2192C42.1792 14.8141 42.5969 15.4621 42.8285 16.1641C43.061 16.8661 43.1768 17.695 43.1768 18.6508V28.6246Z" fill="white"/>
<path d="M59.149 28.6246H55.2071V19.1152C55.2071 18.1612 54.9554 17.4619 54.452 17.0191C53.9478 16.5763 53.3405 16.354 52.6293 16.354C51.918 16.354 51.3153 16.5781 50.821 17.0263C50.3277 17.4745 50.0806 18.1702 50.0806 19.1152V28.6246H46.1387V7.30176H50.0806V14.4595C50.604 13.9312 51.1894 13.5298 51.8359 13.2553C52.4834 12.9817 53.1627 12.844 53.8739 12.844C54.7329 12.844 55.4943 12.9835 56.1554 13.2607C56.8174 13.5388 57.3682 13.9312 57.8077 14.4388C58.2472 14.9455 58.5809 15.5494 58.808 16.2523C59.035 16.9534 59.149 17.7148 59.149 18.5338V28.6246Z" fill="white"/>
<path d="M74.0394 28.6246H70.1868V27.2791C69.6734 27.8056 69.1172 28.1854 68.5199 28.4203C67.9218 28.6534 67.1841 28.7704 66.305 28.7704C65.4251 28.7704 64.65 28.6561 63.9789 28.4275C63.3069 28.198 62.7388 27.8542 62.2747 27.3961C61.4047 26.5186 60.9707 25.3486 60.9707 23.8861C60.9707 23.0473 61.1704 22.285 61.5707 21.5974C61.971 20.9098 62.5728 20.3662 63.378 19.9666C64.1832 19.567 65.1789 19.3672 66.3643 19.3672H70.0984V18.5923C70.0984 17.7238 69.8686 17.0974 69.409 16.7122C68.9494 16.327 68.2017 16.1344 67.164 16.1344C66.4136 16.1344 65.8282 16.228 65.4087 16.4125C64.9883 16.5979 64.5616 16.9345 64.1266 17.4214L61.6081 14.9941C62.3385 14.185 63.1336 13.6243 63.9935 13.312C64.8525 13.0006 65.9585 12.844 67.3126 12.844C69.5248 12.844 71.1999 13.3075 72.3351 14.2336C73.4713 15.1597 74.0394 16.5349 74.0394 18.3574V28.6246ZM70.0984 22.8772V22.0285H66.9716C66.2695 22.0285 65.7269 22.1851 65.3421 22.4965C64.9564 22.8088 64.764 23.2426 64.764 23.7988C64.764 24.364 64.9537 24.805 65.3339 25.1218C65.7142 25.4386 66.2795 25.597 67.0309 25.597C67.6136 25.597 68.0923 25.5484 68.468 25.4512C68.8436 25.354 69.1947 25.1533 69.5202 24.8509C69.905 24.4999 70.0984 23.842 70.0984 22.8772Z" fill="white"/>
</svg>
