<svg width="315" height="38" viewBox="0 0 315 38" fill="none" xmlns="http://www.w3.org/2000/svg">
<path d="M150.936 16.035C152.557 17.6814 153.367 19.6726 153.367 21.9687C153.367 24.2658 152.557 26.2561 150.936 27.8644C149.276 29.5098 147.272 30.3496 144.997 30.3496C142.721 30.3496 140.75 29.5098 139.133 27.8644C137.473 26.2561 136.662 24.2658 136.662 21.9687C136.662 19.6726 137.473 17.6814 139.133 16.035C140.75 14.3906 142.721 13.585 144.997 13.585C147.272 13.585 149.276 14.3906 150.936 16.035ZM148.121 25.0686C148.967 24.1879 149.393 23.1534 149.433 21.9687C149.393 20.7052 148.967 19.6726 148.158 18.8309C147.272 17.9474 146.231 17.5284 144.997 17.5664C143.8 17.5284 142.759 17.9474 141.908 18.8309C141.06 19.6726 140.595 20.7052 140.595 21.9687C140.595 23.1534 141.06 24.1879 141.908 25.0686C142.759 25.9502 143.8 26.3682 144.997 26.3682C146.231 26.3682 147.272 25.9502 148.121 25.0686Z" fill="#E3262E"/>
<path d="M92.1852 9.48858C89.2937 9.45248 86.9001 10.4462 84.8952 12.5143C82.8472 14.5426 81.8457 16.9537 81.8457 19.8246C81.8457 22.6565 82.8472 25.1455 84.8952 27.1738C86.9001 29.165 89.2937 30.1606 92.1852 30.1606C94.5003 30.1606 96.622 29.4718 98.4718 28.0554C100.287 26.6019 101.482 24.8007 102.099 22.5796H97.8944C97.3535 23.6531 96.5818 24.5337 95.6186 25.2206C94.5386 25.8742 93.4184 26.2162 92.1852 26.2162C90.411 26.2162 88.9069 25.5664 87.6718 24.3418C86.4003 23.0783 85.7818 21.5859 85.8191 19.8246C85.7818 18.0652 86.4003 16.5718 87.6718 15.3073C88.9069 14.0818 90.411 13.4339 92.1852 13.4339C93.4184 13.4339 94.5386 13.7778 95.6186 14.4666C96.5818 15.1183 97.3535 16.036 97.8944 17.1066H102.099C101.482 14.8884 100.287 13.0473 98.4718 11.6346C96.622 10.1802 94.5003 9.45248 92.1852 9.48858Z" fill="#E3262E"/>
<path d="M117.645 13.55C119.381 13.5101 120.924 13.853 122.312 14.5807C123.626 15.2695 124.321 16.6099 124.321 18.5242V30.2367H120.306V28.5904C119.074 29.6648 117.337 30.1987 115.138 30.2367C113.788 30.1987 112.671 29.8178 111.857 29.1271C110.934 28.2854 110.471 27.1359 110.508 25.7204C110.471 23.6903 111.204 22.2757 112.707 21.3941C113.596 20.8963 114.751 20.5534 116.182 20.3605L119.266 19.8637C119.884 19.5977 120.193 19.1749 120.193 18.6391C120.154 17.9884 119.96 17.5286 119.496 17.2996C119.035 17.0308 118.378 16.8759 117.53 16.9158C116.527 16.8759 115.832 17.1448 115.409 17.6815C115.138 17.9884 114.907 18.4472 114.831 19.136H110.816C110.934 17.6815 111.281 16.5339 111.975 15.6533C113.056 14.2349 114.945 13.5101 117.645 13.55ZM119.343 22.5436L117.337 23.0414C116.49 23.1545 115.832 23.3464 115.446 23.5753C114.791 23.9971 114.482 24.57 114.482 25.3756C114.482 26.1023 114.675 26.602 115.061 26.944C115.446 27.2499 115.911 27.4038 116.49 27.4038C117.414 27.4038 118.224 27.1359 118.995 26.602C119.729 26.0653 120.114 25.1077 120.114 23.7302V22.1209L119.343 22.5436Z" fill="#E3262E"/>
<path d="M104.145 30.2368H108.155V9.48877H104.145V30.2368Z" fill="#E3262E"/>
<path d="M133.693 14.1218C132.613 14.5426 131.649 15.2694 130.838 16.3809V14.3517L127.018 14.3118V30.2366H130.993V22.6176C130.993 21.319 131.146 20.3994 131.493 19.8246C131.766 19.2128 132.266 18.715 132.881 18.2951C133.577 17.8334 134.309 17.6054 135.082 17.6054L136.315 17.6805L136.277 13.623L135.235 13.7L133.693 14.1218Z" fill="#E3262E"/>
<path d="M154.061 14.1978L163.747 4.59143L161.197 2.06348L151.516 11.6727L154.061 14.1978Z" fill="#E3262E"/>
<path d="M143.686 10.3703H147.272V0.0732422H143.686V10.3703Z" fill="#E3262E"/>
<path d="M155.836 21.7407H166.446V18.1782H155.836V21.7407Z" fill="#E3262E"/>
<path d="M182.253 15.108L179.126 18.2506C178.794 17.901 178.464 17.6493 178.138 17.4944C177.811 17.3396 177.409 17.2626 176.932 17.2626C176.216 17.2626 175.592 17.5277 175.058 18.0568C174.523 18.586 174.256 19.3346 174.256 20.3007V30.2149H170.117V13.7429H174.162V15.3256C174.578 14.8297 175.158 14.4107 175.906 14.0697C176.652 13.7286 177.461 13.5576 178.333 13.5576C179.183 13.5576 179.909 13.6764 180.51 13.9148C181.112 14.1523 181.693 14.5504 182.253 15.108Z" fill="black"/>
<path d="M196.877 23.2524H186.484C186.484 24.3335 186.809 25.216 187.457 25.9C188.105 26.585 188.994 26.927 190.125 26.927C191.006 26.927 191.712 26.8092 192.241 26.5717C192.77 26.3351 193.32 25.939 193.89 25.3832L196.396 27.8067C195.493 28.7016 194.57 29.358 193.626 29.7751C192.682 30.1912 191.504 30.4002 190.094 30.4002C187.853 30.4002 186.012 29.7599 184.57 28.4783C183.129 27.1968 182.408 25.0232 182.408 21.9556C182.408 20.2171 182.709 18.7114 183.31 17.4403C183.911 16.1692 184.76 15.2049 185.854 14.5456C186.948 13.8873 188.211 13.5576 189.643 13.5576C191.136 13.5576 192.43 13.892 193.524 14.5608C194.619 15.2306 195.451 16.1692 196.021 17.3785C196.592 18.5879 196.877 19.9388 196.877 21.4312V23.2524ZM192.801 20.4432C192.77 19.7849 192.64 19.193 192.413 18.6677C192.184 18.1632 191.834 17.7547 191.362 17.4403C190.889 17.1268 190.317 16.9691 189.643 16.9691C188.989 16.9691 188.424 17.1268 187.947 17.4403C187.469 17.7547 187.112 18.1632 186.874 18.6677C186.645 19.2339 186.516 19.8257 186.484 20.4432H192.801Z" fill="black"/>
<path d="M211.813 25.0279C211.813 26.7778 211.157 28.1107 209.845 29.0265C208.533 29.9423 206.845 30.4002 204.781 30.4002C203.774 30.4002 202.883 30.3432 202.104 30.2301C201.327 30.1171 200.564 29.8881 199.818 29.5433C199.07 29.1984 198.365 28.6968 197.701 28.0385L200.409 25.3519C201.446 26.3817 202.924 26.8956 204.843 26.8956C205.631 26.8956 206.315 26.755 206.897 26.471C207.478 26.1888 207.768 25.7585 207.768 25.1828C207.768 24.2869 207.187 23.7825 206.025 23.6694L203.411 23.4224C201.834 23.2581 200.632 22.8106 199.802 22.0791C198.972 21.3486 198.557 20.258 198.557 18.8064C198.557 17.1705 199.177 15.887 200.416 14.9551C201.656 14.0241 203.173 13.5576 204.967 13.5576C207.819 13.5576 209.935 14.2008 211.315 15.4871L208.764 18.0502C207.933 17.3092 206.648 16.9387 204.905 16.9387C204.128 16.9387 203.539 17.0878 203.139 17.3861C202.74 17.6854 202.54 18.0606 202.54 18.5128C202.54 19.3678 203.116 19.8409 204.267 19.9331L206.881 20.1962C207.97 20.3093 208.88 20.5667 209.612 20.9676C210.343 21.3695 210.893 21.9176 211.261 22.6121C211.629 23.3065 211.813 24.1121 211.813 25.0279Z" fill="black"/>
<path d="M213.928 30.2147H218.067V13.7427H213.928V30.2147Z" fill="black"/>
<path d="M218.579 9.0963C218.579 9.8164 218.33 10.4292 217.832 10.9336C217.334 11.4381 216.722 11.6898 215.996 11.6898C215.28 11.6898 214.666 11.4352 214.153 10.9251C213.639 10.4159 213.383 9.8069 213.383 9.0963C213.383 8.38665 213.639 7.7815 214.153 7.28275C214.666 6.78305 215.28 6.5332 215.996 6.5332C216.37 6.5332 216.709 6.5978 217.015 6.727C217.321 6.85525 217.594 7.03765 217.832 7.27515C218.07 7.5117 218.254 7.7815 218.385 8.0855C218.514 8.38855 218.579 8.7258 218.579 9.0963Z" fill="black"/>
<path d="M234.524 30.2149H230.479V28.6636C229.929 29.2839 229.324 29.7285 228.664 29.9974C228.004 30.2662 227.238 30.4002 226.366 30.4002C225.815 30.4002 225.29 30.3413 224.792 30.2225C224.293 30.1047 223.825 29.9318 223.389 29.7057C222.953 29.4796 222.584 29.2165 222.283 28.9182C221.785 28.4451 221.407 27.8295 221.153 27.0733C220.898 26.3171 220.74 25.5552 220.678 24.7885C220.616 24.0219 220.584 23.0776 220.584 21.9556C220.584 20.8441 220.616 19.9084 220.678 19.1465C220.74 18.3846 220.901 17.6284 221.16 16.8769C221.42 16.1255 221.794 15.5137 222.283 15.0396C222.751 14.577 223.34 14.2141 224.052 13.9519C224.763 13.6887 225.524 13.5576 226.334 13.5576C227.208 13.5576 227.968 13.6821 228.618 13.93C229.267 14.178 229.856 14.6017 230.386 15.2011V7.70752H234.524V30.2149ZM230.386 21.9556C230.386 20.9097 230.318 20.0604 230.184 19.4096C230.049 18.7579 229.775 18.2373 229.359 17.8478C228.944 17.4574 228.342 17.2626 227.554 17.2626C226.756 17.2626 226.154 17.4574 225.749 17.8478C225.345 18.2373 225.078 18.7608 224.949 19.4172C224.819 20.0737 224.754 20.9192 224.754 21.9556C224.754 23.0025 224.819 23.8566 224.949 24.5178C225.078 25.1799 225.347 25.7072 225.758 26.1024C226.167 26.4976 226.766 26.6952 227.554 26.6952C228.333 26.6952 228.932 26.4976 229.351 26.1024C229.772 25.7072 230.049 25.1828 230.184 24.5254C230.318 23.8689 230.386 23.013 230.386 21.9556ZM304.657 30.2149H300.612V28.7947C300.073 29.3504 299.489 29.7513 298.862 29.9993C298.234 30.2453 297.459 30.3688 296.535 30.3688C295.612 30.3688 294.799 30.2482 294.093 30.0069C293.387 29.7646 292.792 29.4017 292.304 28.9182C291.391 27.9919 290.935 26.7569 290.935 25.2132C290.935 24.3278 291.145 23.5231 291.565 22.7973C291.986 22.0715 292.617 21.4977 293.463 21.0759C294.308 20.6541 295.354 20.4432 296.598 20.4432H300.518V19.6253C300.518 18.7085 300.278 18.0473 299.795 17.6407C299.313 17.2341 298.527 17.0308 297.438 17.0308C296.65 17.0308 296.036 17.1296 295.594 17.3244C295.154 17.5201 294.705 17.8754 294.249 18.3893L291.604 15.8272C292.371 14.9731 293.206 14.3813 294.108 14.0516C295.011 13.7229 296.172 13.5576 297.593 13.5576C299.917 13.5576 301.675 14.0469 302.868 15.0244C304.061 16.002 304.657 17.4536 304.657 19.3773V30.2149ZM300.518 24.1482V23.2524H297.236C296.499 23.2524 295.929 23.4177 295.524 23.7464C295.12 24.076 294.918 24.5339 294.918 25.121C294.918 25.7176 295.117 26.1831 295.517 26.5175C295.916 26.8519 296.509 27.0191 297.298 27.0191C297.91 27.0191 298.413 26.9678 298.807 26.8652C299.201 26.7626 299.57 26.5508 299.912 26.2316C300.316 25.8611 300.518 25.1666 300.518 24.1482Z" fill="black"/>
<path d="M251.451 23.2524H241.058C241.058 24.3335 241.383 25.216 242.031 25.9C242.679 26.585 243.569 26.927 244.699 26.927C245.58 26.927 246.286 26.8092 246.815 26.5717C247.344 26.3351 247.893 25.939 248.464 25.3832L250.969 27.8067C250.067 28.7016 249.144 29.358 248.2 29.7751C247.256 30.1912 246.078 30.4002 244.668 30.4002C242.427 30.4002 240.586 29.7599 239.144 28.4783C237.702 27.1968 236.982 25.0232 236.982 21.9556C236.982 20.2171 237.283 18.7114 237.884 17.4403C238.486 16.1692 239.334 15.2049 240.428 14.5456C241.523 13.8873 242.785 13.5576 244.217 13.5576C245.71 13.5576 247.004 13.892 248.098 14.5608C249.193 15.2306 250.026 16.1692 250.595 17.3785C251.166 18.5879 251.451 19.9388 251.451 21.4312V23.2524ZM247.375 20.4432C247.344 19.7849 247.215 19.193 246.986 18.6677C246.758 18.1632 246.408 17.7547 245.936 17.4403C245.463 17.1268 244.891 16.9691 244.217 16.9691C243.563 16.9691 242.998 17.1268 242.52 17.4403C242.043 17.7547 241.685 18.1632 241.448 18.6677C241.219 19.2339 241.09 19.8257 241.058 20.4432H247.375Z" fill="black"/>
<path d="M267.694 30.2149H263.556V20.2694C263.556 19.232 263.289 18.471 262.755 17.9875C262.221 17.5049 261.574 17.2626 260.818 17.2626C260.061 17.2626 259.41 17.5049 258.865 17.9875C258.321 18.471 258.048 19.232 258.048 20.2694V30.2149H253.91V13.7429H257.955V15.2629C258.484 14.7157 259.109 14.2948 259.83 13.9994C260.551 13.7049 261.305 13.5576 262.093 13.5576C263.712 13.5576 265.018 14.0412 266.014 15.0092C266.647 15.6372 267.086 16.3212 267.329 17.0622C267.573 17.8032 267.694 18.6781 267.694 19.687V30.2149Z" fill="black"/>
<path d="M282.878 28.1525C281.416 29.6506 279.585 30.4002 277.386 30.4002C276.474 30.4002 275.592 30.2662 274.742 29.9993C273.89 29.7314 273.1 29.2706 272.368 28.617C271.638 27.9634 271.053 27.0809 270.618 25.9694C270.182 24.8579 269.965 23.5203 269.965 21.9556C269.965 20.3815 270.182 19.0439 270.618 17.9419C271.053 16.8408 271.638 15.9659 272.368 15.318C273.1 14.6691 273.895 14.2141 274.757 13.9519C275.618 13.6887 276.494 13.5576 277.386 13.5576C278.558 13.5576 279.582 13.7362 280.458 14.0925C281.335 14.4487 282.142 15.0102 282.878 15.7749L280.062 18.5594C279.647 18.0967 279.232 17.7652 278.817 17.5638C278.403 17.3633 277.925 17.2626 277.386 17.2626C276.422 17.2626 275.638 17.6217 275.036 18.3399C274.414 19.1094 274.103 20.315 274.103 21.9556C274.103 23.6276 274.414 24.8484 275.036 25.6179C275.638 26.3361 276.422 26.6952 277.386 26.6952C277.925 26.6952 278.4 26.5926 278.81 26.3864C279.219 26.1803 279.637 25.8516 280.062 25.3984L282.878 28.1525Z" fill="black"/>
<path d="M284.729 30.2147H288.867V13.7427H284.729V30.2147Z" fill="black"/>
<path d="M289.383 9.0963C289.383 9.8164 289.133 10.4292 288.635 10.9336C288.137 11.4381 287.525 11.6898 286.799 11.6898C286.083 11.6898 285.469 11.4352 284.956 10.9251C284.442 10.4159 284.186 9.8069 284.186 9.0963C284.186 8.38665 284.442 7.7815 284.956 7.28275C285.469 6.78305 286.083 6.5332 286.799 6.5332C287.173 6.5332 287.513 6.5978 287.818 6.727C288.124 6.85525 288.396 7.03765 288.635 7.27515C288.874 7.5117 289.058 7.7815 289.187 8.0855C289.317 8.38855 289.383 8.7258 289.383 9.0963Z" fill="black"/>
<path d="M314.803 30.2149H312.447C310.847 30.2149 309.637 29.7542 308.816 28.8336C307.995 27.9121 307.584 26.8035 307.584 25.5067V7.70752H311.755V25.2436C311.755 25.7376 311.868 26.1109 312.095 26.3636C312.324 26.6154 312.698 26.7417 313.216 26.7417H314.803V30.2149Z" fill="black"/>
<path d="M20.5526 30.2149H16.1186V17.0935L11.7929 25.6302H8.79032L4.43394 17.0935V30.2149H0V7.70752H4.3717L10.2839 19.8713L16.1809 7.70752H20.5526V30.2149Z" fill="black"/>
<path d="M24.1621 30.2147H28.3012V13.7427H24.1621V30.2147Z" fill="black"/>
<path d="M28.8132 9.0963C28.8132 9.8164 28.5643 10.4292 28.0664 10.9336C27.5686 11.4381 26.9568 11.6898 26.2301 11.6898C25.5148 11.6898 24.9002 11.4352 24.387 10.9251C23.8738 10.4159 23.6172 9.8069 23.6172 9.0963C23.6172 8.38665 23.8738 7.7815 24.387 7.28275C24.9002 6.78305 25.5148 6.5332 26.2301 6.5332C26.6044 6.5332 26.9434 6.5978 27.2497 6.727C27.5552 6.85525 27.828 7.03765 28.0664 7.27515C28.3048 7.5117 28.4887 7.7815 28.6189 8.0855C28.7481 8.38855 28.8132 8.7258 28.8132 9.0963Z" fill="black"/>
<path d="M45.3351 30.2149H41.1971V20.2694C41.1971 19.232 40.9299 18.471 40.3957 17.9875C39.8614 17.5049 39.2151 17.2626 38.4588 17.2626C37.7014 17.2626 37.0504 17.5049 36.5056 17.9875C35.9617 18.471 35.6889 19.232 35.6889 20.2694V30.2149H31.5508V13.7429H35.596V15.2629C36.1245 14.7157 36.7497 14.2948 37.4707 13.9994C38.1916 13.7049 38.9461 13.5576 39.7341 13.5576C41.3522 13.5576 42.6591 14.0412 43.6548 15.0092C44.2877 15.6372 44.7262 16.3212 44.9694 17.0622C45.2135 17.8032 45.3351 18.6781 45.3351 19.687V30.2149Z" fill="black"/>
<path d="M62.1062 30.2149H57.9671V20.1772C57.9671 19.1702 57.7029 18.4321 57.1744 17.9647C56.6449 17.4973 56.0072 17.2626 55.2604 17.2626C54.5136 17.2626 53.8807 17.4992 53.3618 17.9723C52.8438 18.4454 52.5844 19.1797 52.5844 20.1772V30.2149H48.4453V7.70752H52.5844V15.2629C53.1339 14.7052 53.7486 14.2815 54.4274 13.9918C55.1072 13.703 55.8205 13.5576 56.5673 13.5576C57.4692 13.5576 58.2687 13.7049 58.9629 13.9975C59.658 14.291 60.2363 14.7052 60.6978 15.241C61.1592 15.7759 61.5097 16.4133 61.7481 17.1553C61.9865 17.8953 62.1062 18.699 62.1062 19.5635V30.2149Z" fill="black"/>
<path d="M77.7417 30.2149H73.6964V28.7947C73.1574 29.3504 72.5734 29.7513 71.9462 29.9993C71.3181 30.2453 70.5436 30.3688 69.6206 30.3688C68.6967 30.3688 67.8828 30.2482 67.1782 30.0069C66.4725 29.7646 65.876 29.4017 65.3887 28.9182C64.4753 27.9919 64.0195 26.7569 64.0195 25.2132C64.0195 24.3278 64.2292 23.5231 64.6495 22.7973C65.0699 22.0715 65.7018 21.4977 66.5472 21.0759C67.3926 20.6541 68.4381 20.4432 69.6828 20.4432H73.6036V19.6253C73.6036 18.7085 73.3623 18.0473 72.8797 17.6407C72.3972 17.2341 71.6121 17.0308 70.5225 17.0308C69.7345 17.0308 69.1199 17.1296 68.6794 17.3244C68.238 17.5201 67.79 17.8754 67.3333 18.3893L64.6888 15.8272C65.4557 14.9731 66.2906 14.3813 67.1935 14.0516C68.0954 13.7229 69.2568 13.5576 70.6786 13.5576C73.0013 13.5576 74.7602 14.0469 75.9522 15.0244C77.1452 16.002 77.7417 17.4536 77.7417 19.3773V30.2149ZM73.6036 24.1482V23.2524H70.3205C69.5833 23.2524 69.0136 23.4177 68.6095 23.7464C68.2045 24.076 68.0025 24.5339 68.0025 25.121C68.0025 25.7176 68.2017 26.1831 68.6009 26.5175C69.0002 26.8519 69.5938 27.0191 70.3827 27.0191C70.9945 27.0191 71.4972 26.9678 71.8917 26.8652C72.2861 26.7626 72.6547 26.5508 72.9965 26.2316C73.4006 25.8611 73.6036 25.1666 73.6036 24.1482Z" fill="black"/>
</svg>
