<svg width="98" height="98" viewBox="0 0 98 98" fill="none" xmlns="http://www.w3.org/2000/svg">
<path d="M89.8333 0H8.16667C3.65858 0.00539999 0.00539999 3.65858 0 8.16667V73.5C0.00539999 78.0081 3.65858 81.6613 8.16667 81.6667H36.6487L34.7132 88.2H34.3C31.5938 88.2 29.4 90.3938 29.4 93.1C29.4 95.8062 31.5938 98 34.3 98H63.7C66.4062 98 68.6 95.8062 68.6 93.1C68.6 90.3938 66.4062 88.2 63.7 88.2H63.2868L61.3513 81.6667H89.8333C94.3414 81.6613 97.9946 78.0081 98 73.5V8.16667C97.9946 3.65858 94.3414 0.00539999 89.8333 0ZM94.7333 8.16667V9.0258L81.4004 3.26667H89.8333C92.5395 3.26667 94.7333 5.46047 94.7333 8.16667ZM73.5 57.0866L57.9 45.98C54.3811 43.4852 52.2831 39.4449 52.2667 35.1314V12.5848L73.5 3.41203L94.7333 12.5848V35.1248C94.7174 39.439 92.6194 43.4799 89.1 45.9751L73.5 57.0866ZM65.3333 93.1C65.3333 94.0021 64.6021 94.7333 63.7 94.7333H34.3C33.3979 94.7333 32.6667 94.0021 32.6667 93.1C32.6667 92.1979 33.3979 91.4667 34.3 91.4667H63.7C64.6021 91.4667 65.3333 92.1979 65.3333 93.1ZM59.8796 88.2H38.1204L40.0559 81.6667H57.9441L59.8796 88.2ZM89.8333 78.4H8.16667C5.46047 78.4 3.26667 76.2062 3.26667 73.5V68.6H94.7333V73.5C94.7333 76.2062 92.5395 78.4 89.8333 78.4ZM94.7333 65.3333H3.26667V8.16667C3.26667 5.46047 5.46047 3.26667 8.16667 3.26667H65.5996L49.98 10.0107C49.384 10.2708 48.999 10.8598 49 11.5101V35.1314C49.0166 40.502 51.6256 45.534 56.0054 48.6423L71.8095 59.8943C72.8219 60.613 74.1781 60.613 75.1905 59.8943L90.993 48.6439C92.4285 47.6123 93.691 46.3592 94.7333 44.9314V65.3333Z" fill="#DA291C"/>
<path d="M49.0005 75.1334C49.9026 75.1334 50.6338 74.4021 50.6338 73.5C50.6338 72.598 49.9026 71.8667 49.0005 71.8667C48.0985 71.8667 47.3672 72.598 47.3672 73.5C47.3672 74.4021 48.0985 75.1334 49.0005 75.1334Z" fill="#DA291C"/>
<path d="M9.79905 19.5999C10.2322 19.5998 10.6476 19.4277 10.9538 19.1214L19.1205 10.9547C19.5451 10.5446 19.7154 9.93733 19.5659 9.36627C19.4164 8.79521 18.9704 8.34923 18.3994 8.19976C17.8283 8.05028 17.221 8.22057 16.8109 8.64516L8.64428 16.8118C8.1773 17.279 8.03763 17.9814 8.29037 18.5916C8.54312 19.2018 9.13853 19.5998 9.79905 19.5999Z" fill="#DA291C"/>
<path d="M9.79905 31.0333C10.2322 31.0332 10.6476 30.861 10.9538 30.5547L30.5538 10.9547C30.9784 10.5446 31.1487 9.93733 30.9992 9.36627C30.8497 8.79521 30.4038 8.34923 29.8327 8.19976C29.2617 8.05028 28.6544 8.22057 28.2443 8.64516L8.64428 28.2452C8.1773 28.7123 8.03763 29.4147 8.29037 30.0249C8.54312 30.6352 9.13853 31.0331 9.79905 31.0333Z" fill="#DA291C"/>
<path d="M39.6785 8.64516L8.64516 39.6785C8.22057 40.0886 8.05028 40.6959 8.19976 41.2669C8.34923 41.838 8.79521 42.284 9.36627 42.4334C9.93733 42.5829 10.5446 42.4126 10.9547 41.988L41.988 10.9547C42.4126 10.5446 42.5829 9.93733 42.4334 9.36627C42.284 8.79521 41.838 8.34923 41.2669 8.19976C40.6959 8.05028 40.0886 8.22057 39.6785 8.64516Z" fill="#DA291C"/>
<path d="M91.4671 15.8056C91.4681 15.1553 91.0832 14.5664 90.4872 14.3062L74.1538 7.25022C73.741 7.07219 73.273 7.07219 72.8602 7.25022L56.5269 14.3062C55.9308 14.5664 55.5459 15.1553 55.5469 15.8056V35.1312C55.5622 38.388 57.1486 41.4372 59.8066 43.3191L72.5662 52.4021C73.1332 52.8058 73.8938 52.8058 74.4609 52.4021L87.2205 43.3208C89.8734 41.4351 91.4545 38.386 91.4671 35.1312V15.8056ZM88.2005 35.1312C88.1859 37.3324 87.11 39.3913 85.3111 40.6601L73.5005 49.0685L61.6898 40.6601C59.8908 39.3915 58.8148 37.3325 58.8005 35.1312V16.8787L73.5005 10.5283L88.2005 16.8787V35.1312Z" fill="#DA291C"/>
<path d="M64.6798 31.3602C64.2129 31.0101 63.5948 30.9356 63.0582 31.1648C62.5215 31.394 62.148 31.8921 62.0782 32.4715C62.0084 33.0508 62.2529 33.6234 62.7198 33.9735L69.2531 38.8735C69.9588 39.4031 70.9575 39.2765 71.5087 38.5877L84.5754 22.2544C85.1319 21.5494 85.0149 20.5275 84.3134 19.9666C83.612 19.4057 82.5894 19.5164 82.0241 20.2143L69.9473 35.3112L64.6798 31.3602Z" fill="#DA291C"/>
</svg>
