<svg width="16" height="23" viewBox="0 0 16 23" fill="none" xmlns="http://www.w3.org/2000/svg">
<path fill-rule="evenodd" clip-rule="evenodd" d="M2.06321 18.8664C1.27811 19.6434 1.28966 20.8912 2.08902 21.6535C2.88838 22.4158 4.17283 22.4039 4.95793 21.6269L13.8793 12.7979C14.0177 12.7113 14.1475 12.6068 14.2651 12.4846C14.6513 12.0834 14.8321 11.5674 14.8117 11.0592C14.809 10.5522 14.6063 10.0465 14.2045 9.66333C14.0819 9.54635 13.9478 9.4476 13.8058 9.36705L4.83394 1.21952C4.01623 0.476937 2.73242 0.520137 1.96648 1.31601C1.20054 2.11187 1.2425 3.35903 2.06022 4.10161L9.84182 11.1682L2.06321 18.8664Z" fill="white"/>
</svg>
