<svg width="157" height="56" viewBox="0 0 157 56" fill="none" xmlns="http://www.w3.org/2000/svg">
<path fill-rule="evenodd" clip-rule="evenodd" d="M147.35 3.39561L152.45 8.51014L134.405 26.6285L129.308 21.5123L147.35 3.39561ZM137.734 40.6094V33.4163L157 33.4191V40.6121L137.734 40.6094ZM91.3282 55.9691H83.9202V26.4813L91.0109 26.4662V30.3474C92.4473 28.4116 94.7171 26.6186 96.3067 25.9796C97.4074 25.5332 98.4192 25.3142 99.1508 25.2054C99.9096 25.0925 101.133 25.1032 101.133 25.1032L101.151 32.5866L99.7934 32.4953L98.8841 32.4696C95.8008 32.4696 93.2305 34.7142 92.1831 36.7121C91.5951 37.8373 91.2998 39.5786 91.2998 41.9385L91.3282 55.9691ZM66.4085 37.4592C67.8357 37.2756 68.8557 37.0498 69.471 36.7776C70.5728 36.3068 71.1255 35.5724 71.1255 34.5752C71.1255 33.359 70.6986 32.5251 69.8505 32.0711C69.0212 31.6 67.7909 31.3663 66.1648 31.3649C64.3394 31.3649 63.0496 31.8179 62.2907 32.7252C61.7486 33.3971 61.3869 34.3031 61.2054 35.4458H53.755C53.9164 32.8518 54.64 30.7201 55.9219 29.0523C57.9641 26.4405 61.4693 25.1334 66.4372 25.1334C69.669 25.1334 72.5418 25.7809 75.0526 27.0678C77.562 28.3543 78.8183 30.7853 78.8183 34.3563L78.7885 55.9691L71.4113 55.9677L71.4034 52.9544C71.4034 52.9544 67.9492 55.9691 61.7879 55.9691C59.1144 55.9691 57.48 55.4671 55.7295 53.9448C53.9964 52.4036 53.1291 50.4147 53.1291 47.6055C53.1291 43.9587 54.529 41.3225 57.3283 39.6887C58.8638 38.7989 60.7972 38.1664 63.7811 37.7828L66.4085 37.4592ZM71.0985 41.0761C70.6094 41.3863 70.112 41.641 69.6054 41.8379C69.1186 42.0202 68.4383 42.1931 67.5752 42.3547L65.8393 42.6801C64.2149 42.9724 63.0496 43.3259 62.3447 43.7425C61.1497 44.4498 60.5576 45.5462 60.5576 47.0345C60.5576 48.3581 60.9165 49.3182 61.6402 49.9157C62.3799 50.4963 63.2745 50.7887 64.3206 50.7887C65.9846 50.7887 67.5102 50.2976 68.9019 49.3182C70.3099 48.3388 71.0428 46.554 71.0985 43.9587V41.0761ZM41.4321 17.559H48.8377V55.9691H41.4321V17.559ZM117.166 48.645C121.661 48.645 125.301 44.9885 125.301 40.4749C125.301 35.9626 121.661 32.3048 117.166 32.3048C112.67 32.3048 109.026 35.9626 109.026 40.4749C109.026 44.9885 112.67 48.645 117.166 48.645ZM117.439 24.9508C125.982 24.9508 132.907 31.9009 132.907 40.4749C132.907 49.0516 125.982 56 117.439 56C108.9 56 101.978 49.0516 101.978 40.4749C101.978 31.9009 108.9 24.9508 117.439 24.9508ZM19.1214 17.581C27.9306 17.581 35.3481 23.561 37.5663 31.6967H29.7382C27.8478 27.7195 23.807 24.97 19.1214 24.97C12.6251 24.97 7.3608 30.2534 7.3608 36.7749C7.3608 43.2936 12.6251 48.5798 19.1214 48.5798C23.807 48.5798 27.8478 45.8307 29.7382 41.853H37.5663C35.3481 49.9902 27.9306 55.9691 19.1214 55.9691C8.56133 55.9691 0 47.3773 0 36.7749C0 26.1725 8.56133 17.581 19.1214 17.581ZM114.667 0H121.801L121.798 19.3627L114.66 19.36" fill="#DA291C"/>
</svg>
