<svg width="98" height="98" viewBox="0 0 98 98" fill="none" xmlns="http://www.w3.org/2000/svg">
<path d="M81.6667 17.3035V8.16667C81.6609 3.65867 78.008 0.00571667 73.5 0H8.16667C3.65867 0.00571667 0.00571667 3.65867 0 8.16667V44.1C0.0126584 48.2711 3.17438 51.7595 7.32387 52.1826L13.4636 68.1202C15.0855 72.3285 19.8115 74.4249 24.0202 72.805L62.3607 58.0356C59.7114 64.9556 60.4652 72.7185 64.395 78.9998L65.3333 80.5005V96.3667C65.3333 97.2691 66.0643 98 66.9667 98H96.3667C97.2691 98 98 97.2691 98 96.3667V42.4524C97.9845 36.8039 95.7358 31.3919 91.7423 27.3971L81.6667 17.3035ZM81.6667 27.0717L86.6238 39.9399C87.5953 42.4659 86.3364 45.3001 83.8108 46.2723L80.9774 47.3667C81.4298 46.3369 81.6642 45.2237 81.6667 44.1V27.0717ZM3.26667 44.1V8.16667C3.26667 5.46105 5.46105 3.26667 8.16667 3.26667H73.5C76.2056 3.26667 78.4 5.46105 78.4 8.16667V18.5481H78.3857L78.4 18.5853V44.1C78.3873 44.385 78.3502 44.6676 78.2889 44.9461L63.3276 29.9831C59.9646 26.6977 54.6032 26.6723 51.2099 29.9235C47.8158 33.1767 47.6121 38.534 50.7509 42.0334L57.1291 49H8.16667C5.46105 49 3.26667 46.8056 3.26667 44.1ZM24.1913 52.2667L12.5767 56.7383L10.8584 52.2667H24.1913ZM22.8454 69.756C20.3203 70.7295 17.4844 69.4706 16.5114 66.9454L13.7559 59.78L33.253 52.2667V52.2569H60.123L62.2459 54.5713L22.8454 69.756ZM94.7333 94.7333H68.6V81.6667H94.7333V94.7333ZM94.7333 78.4H67.8732L67.1647 77.2681C63.1822 70.9038 63.0238 62.8654 66.7511 56.35C67.1039 55.7334 67.0173 54.9592 66.5371 54.4357L53.1523 39.8337C51.1564 37.6492 51.2687 34.2718 53.4055 32.2257C55.5431 30.1791 58.9221 30.2126 61.0177 32.3L87.0452 58.3214L89.3548 56.0119L83.3114 49.9686L84.9872 49.3152C89.1923 47.6929 91.2878 42.971 89.67 38.7635L84.1416 24.4081L89.4328 29.7103C92.8138 33.0905 94.7203 37.6712 94.7333 42.4524V78.4Z" fill="#DA291C"/>
<path d="M18.6199 22.8665C20.9653 22.8665 22.8665 20.9653 22.8665 18.6199V10.7799C22.8665 8.4344 20.9653 6.5332 18.6199 6.5332H10.7799C8.4344 6.5332 6.5332 8.4344 6.5332 10.7799V18.6199C6.5332 20.9653 8.4344 22.8665 10.7799 22.8665H18.6199ZM9.79987 18.6199V16.3332H13.0665V13.0665H9.79987V10.7799C9.79987 10.2388 10.2388 9.79987 10.7799 9.79987H18.6199C19.1609 9.79987 19.5999 10.2388 19.5999 10.7799V13.0665H16.3332V16.3332H19.5999V18.6199C19.5999 19.1609 19.1609 19.5999 18.6199 19.5999H10.7799C10.2388 19.5999 9.79987 19.1609 9.79987 18.6199Z" fill="#DA291C"/>
<path d="M8.16602 27.7666H14.6993V31.0333H8.16602V27.7666Z" fill="#DA291C"/>
<path d="M8.16602 37.5664H14.6993V40.8331H8.16602V37.5664Z" fill="#DA291C"/>
<path d="M37.5664 37.5664H44.0997V40.8331H37.5664V37.5664Z" fill="#DA291C"/>
<path d="M17.9668 27.7666H24.5001V31.0333H17.9668V27.7666Z" fill="#DA291C"/>
<path d="M27.7676 27.7666H34.3009V31.0333H27.7676V27.7666Z" fill="#DA291C"/>
<path d="M37.5664 27.7666H44.0997V31.0333H37.5664V27.7666Z" fill="#DA291C"/>
<path d="M68.5996 8.1665H71.8663V13.0665H68.5996V8.1665Z" fill="#DA291C"/>
<path d="M62.0664 8.1665H65.3331V13.0665H62.0664V8.1665Z" fill="#DA291C"/>
<path d="M55.5332 8.1665H58.7999V13.0665H55.5332V8.1665Z" fill="#DA291C"/>
<path d="M49 8.1665H52.2667V13.0665H49V8.1665Z" fill="#DA291C"/>
<path d="M71.8672 84.9331H75.1338V88.1998H71.8672V84.9331Z" fill="#DA291C"/>
</svg>
