<svg width="26" height="26" viewBox="0 0 26 26" fill="none" xmlns="http://www.w3.org/2000/svg">
<path d="M16.4211 7.97266H15.1719C14.1922 7.97266 14.003 8.50185 14.003 9.27506V11.1184H16.2137L15.9105 13.7938H14.003V20.5263H11.5668V13.7938H9.57895V11.1184H11.5668V9.01046C11.5668 6.72023 12.8004 5.47368 14.6017 5.47368C15.4647 5.47368 16.2059 5.54718 16.4211 5.57952V7.97266Z" fill="white"/>
<path fill-rule="evenodd" clip-rule="evenodd" d="M26 13C26 20.1797 20.1797 26 13 26C5.8203 26 0 20.1797 0 13C0 5.8203 5.8203 0 13 0C20.1797 0 26 5.8203 26 13ZM24.6316 13C24.6316 19.4239 19.4239 24.6316 13 24.6316C6.57606 24.6316 1.36842 19.4239 1.36842 13C1.36842 6.57606 6.57606 1.36842 13 1.36842C19.4239 1.36842 24.6316 6.57606 24.6316 13Z" fill="white"/>
</svg>
