<svg width="300" height="36" viewBox="0 0 300 36" fill="none" xmlns="http://www.w3.org/2000/svg">
<path d="M143.749 15.1912C145.293 16.7509 146.064 18.6373 146.064 20.8126C146.064 22.9888 145.293 24.8743 143.749 26.398C142.169 27.9568 140.26 28.7524 138.093 28.7524C135.925 28.7524 134.049 27.9568 132.509 26.398C130.928 24.8743 130.155 22.9888 130.155 20.8126C130.155 18.6373 130.928 16.7509 132.509 15.1912C134.049 13.6333 135.925 12.8701 138.093 12.8701C140.26 12.8701 142.169 13.6333 143.749 15.1912ZM141.068 23.7493C141.874 22.915 142.28 21.9349 142.318 20.8126C142.28 19.6156 141.874 18.6373 141.104 17.8399C140.26 17.0029 139.268 16.606 138.093 16.642C136.953 16.606 135.962 17.0029 135.151 17.8399C134.343 18.6373 133.901 19.6156 133.901 20.8126C133.901 21.9349 134.343 22.915 135.151 23.7493C135.962 24.5845 136.953 24.9805 138.093 24.9805C139.268 24.9805 140.26 24.5845 141.068 23.7493Z" fill="white"/>
<path d="M87.7954 8.98925C85.0416 8.95505 82.7619 9.89645 80.8525 11.8558C78.902 13.7773 77.9482 16.0615 77.9482 18.7812C77.9482 21.4642 78.902 23.8222 80.8525 25.7437C82.7619 27.6301 85.0416 28.5732 87.7954 28.5732C90.0002 28.5732 92.0209 27.9207 93.7826 26.5788C95.5115 25.2019 96.6495 23.4955 97.2367 21.3913H93.2327C92.7175 22.4082 91.9826 23.2426 91.0653 23.8933C90.0367 24.5125 88.9698 24.8365 87.7954 24.8365C86.1057 24.8365 84.6732 24.2208 83.4969 23.0608C82.2859 21.8637 81.6969 20.4499 81.7324 18.7812C81.6969 17.1145 82.2859 15.6997 83.4969 14.5018C84.6732 13.3408 86.1057 12.7269 87.7954 12.7269C88.9698 12.7269 90.0367 13.0527 91.0653 13.7052C91.9826 14.3226 92.7175 15.192 93.2327 16.2064H97.2367C96.6495 14.1049 95.5115 12.3606 93.7826 11.0223C92.0209 9.64445 90.0002 8.95505 87.7954 8.98925Z" fill="white"/>
<path d="M112.042 12.8367C113.696 12.7989 115.165 13.1238 116.487 13.8132C117.738 14.4657 118.4 15.7356 118.4 17.5491V28.6452H114.577V27.0855C113.403 28.1034 111.749 28.6092 109.655 28.6452C108.369 28.6092 107.305 28.2483 106.53 27.594C105.651 26.7966 105.21 25.7076 105.245 24.3666C105.21 22.4433 105.908 21.1032 107.34 20.268C108.186 19.7964 109.286 19.4715 110.649 19.2888L113.586 18.8181C114.175 18.5661 114.469 18.1656 114.469 17.658C114.432 17.0415 114.247 16.6059 113.806 16.389C113.366 16.1343 112.741 15.9876 111.933 16.0254C110.978 15.9876 110.316 16.2423 109.913 16.7508C109.655 17.0415 109.435 17.4762 109.362 18.1287H105.539C105.651 16.7508 105.981 15.6636 106.642 14.8293C107.672 13.4856 109.471 12.7989 112.042 12.8367ZM113.66 21.357L111.749 21.8286C110.942 21.9357 110.316 22.1175 109.948 22.3344C109.325 22.734 109.03 23.2767 109.03 24.0399C109.03 24.7284 109.213 25.2018 109.581 25.5258C109.948 25.8156 110.391 25.9614 110.942 25.9614C111.822 25.9614 112.594 25.7076 113.328 25.2018C114.027 24.6933 114.394 23.7861 114.394 22.4811V20.9565L113.66 21.357Z" fill="white"/>
<path d="M99.1855 28.6453H103.005V8.98926H99.1855V28.6453Z" fill="white"/>
<path d="M127.328 13.3785C126.3 13.7772 125.381 14.4657 124.609 15.5187V13.5963L120.971 13.5585V28.6452H124.757V21.4272C124.757 20.1969 124.903 19.3257 125.233 18.7812C125.493 18.2016 125.969 17.73 126.555 17.3322C127.218 16.8948 127.915 16.6788 128.651 16.6788L129.826 16.7499L129.789 12.906L128.797 12.9789L127.328 13.3785Z" fill="white"/>
<path d="M146.724 13.4505L155.95 4.34973L153.521 1.95483L144.301 11.0583L146.724 13.4505Z" fill="white"/>
<path d="M136.844 9.82444H140.26V0.0693359H136.844V9.82444Z" fill="white"/>
<path d="M148.415 20.5964H158.52V17.2214H148.415V20.5964Z" fill="white"/>
<path d="M173.574 14.3128L170.596 17.29C170.28 16.9588 169.966 16.7203 169.655 16.5736C169.344 16.4269 168.961 16.354 168.507 16.354C167.825 16.354 167.231 16.6051 166.722 17.1064C166.213 17.6077 165.959 18.3169 165.959 19.2322V28.6246H162.017V13.0195H165.869V14.5189C166.265 14.0491 166.818 13.6522 167.53 13.3291C168.24 13.006 169.011 12.844 169.841 12.844C170.651 12.844 171.342 12.9565 171.915 13.1824C172.488 13.4074 173.041 13.7845 173.574 14.3128Z" fill="white"/>
<path d="M187.502 22.0285H177.603C177.603 23.0527 177.913 23.8888 178.53 24.5368C179.147 25.1857 179.994 25.5097 181.071 25.5097C181.91 25.5097 182.582 25.3981 183.086 25.1731C183.59 24.949 184.114 24.5737 184.657 24.0472L187.043 26.3431C186.183 27.1909 185.304 27.8128 184.405 28.2079C183.506 28.6021 182.384 28.8001 181.041 28.8001C178.907 28.8001 177.154 28.1935 175.781 26.9794C174.408 25.7653 173.722 23.7061 173.722 20.8C173.722 19.153 174.008 17.7265 174.581 16.5223C175.153 15.3181 175.961 14.4046 177.003 13.78C178.046 13.1563 179.248 12.844 180.612 12.844C182.034 12.844 183.266 13.1608 184.308 13.7944C185.351 14.4289 186.144 15.3181 186.686 16.4638C187.23 17.6095 187.502 18.8893 187.502 20.3032V22.0285ZM183.62 19.3672C183.59 18.7435 183.467 18.1828 183.25 17.6851C183.032 17.2072 182.699 16.8202 182.249 16.5223C181.799 16.2253 181.254 16.0759 180.612 16.0759C179.989 16.0759 179.451 16.2253 178.997 16.5223C178.542 16.8202 178.202 17.2072 177.975 17.6851C177.757 18.2215 177.634 18.7822 177.603 19.3672H183.62Z" fill="white"/>
<path d="M201.726 23.7106C201.726 25.3684 201.101 26.6311 199.852 27.4987C198.602 28.3663 196.994 28.8001 195.028 28.8001C194.07 28.8001 193.221 28.7461 192.48 28.639C191.739 28.5319 191.013 28.315 190.302 27.9883C189.59 27.6616 188.918 27.1864 188.286 26.5627L190.865 24.0175C191.852 24.9931 193.26 25.48 195.088 25.48C195.838 25.48 196.49 25.3468 197.044 25.0777C197.597 24.8104 197.873 24.4027 197.873 23.8573C197.873 23.0086 197.32 22.5307 196.214 22.4236L193.724 22.1896C192.223 22.0339 191.077 21.61 190.287 20.917C189.496 20.2249 189.101 19.1917 189.101 17.8165C189.101 16.2667 189.691 15.0508 190.872 14.1679C192.053 13.2859 193.497 12.844 195.206 12.844C197.923 12.844 199.938 13.4533 201.252 14.6719L198.822 17.1001C198.031 16.3981 196.807 16.0471 195.147 16.0471C194.407 16.0471 193.846 16.1884 193.465 16.471C193.085 16.7545 192.895 17.11 192.895 17.5384C192.895 18.3484 193.443 18.7966 194.54 18.8839L197.029 19.1332C198.066 19.2403 198.933 19.4842 199.63 19.864C200.326 20.2447 200.85 20.764 201.2 21.4219C201.551 22.0798 201.726 22.843 201.726 23.7106Z" fill="white"/>
<path d="M203.74 28.6246H207.682V13.0195H203.74V28.6246Z" fill="white"/>
<path d="M208.171 8.61765C208.171 9.29985 207.934 9.88035 207.46 10.3583C206.986 10.8362 206.403 11.0747 205.711 11.0747C205.03 11.0747 204.445 10.8335 203.956 10.3502C203.467 9.86775 203.223 9.29085 203.223 8.61765C203.223 7.94535 203.467 7.37205 203.956 6.89955C204.445 6.42615 205.03 6.18945 205.711 6.18945C206.068 6.18945 206.39 6.25065 206.682 6.37305C206.973 6.49455 207.233 6.66735 207.46 6.89235C207.687 7.11645 207.862 7.37205 207.986 7.66005C208.109 7.94715 208.171 8.26665 208.171 8.61765Z" fill="white"/>
<path d="M223.358 28.6246H219.505V27.1549C218.981 27.7426 218.404 28.1638 217.776 28.4185C217.148 28.6732 216.418 28.8001 215.588 28.8001C215.063 28.8001 214.563 28.7443 214.089 28.6318C213.614 28.5202 213.168 28.3564 212.753 28.1422C212.337 27.928 211.986 27.6787 211.7 27.3961C211.225 26.9479 210.865 26.3647 210.623 25.6483C210.38 24.9319 210.23 24.2101 210.17 23.4838C210.111 22.7575 210.081 21.8629 210.081 20.8C210.081 19.747 210.111 18.8605 210.17 18.1387C210.23 17.4169 210.383 16.7005 210.63 15.9886C210.877 15.2767 211.234 14.6971 211.7 14.248C212.145 13.8097 212.706 13.4659 213.384 13.2175C214.061 12.9682 214.786 12.844 215.558 12.844C216.389 12.844 217.113 12.9619 217.732 13.1968C218.351 13.4317 218.911 13.8331 219.417 14.401V7.30176H223.358V28.6246ZM219.417 20.8C219.417 19.8091 219.352 19.0045 219.224 18.388C219.096 17.7706 218.834 17.2774 218.438 16.9084C218.043 16.5385 217.47 16.354 216.719 16.354C215.959 16.354 215.386 16.5385 215 16.9084C214.616 17.2774 214.361 17.7733 214.238 18.3952C214.114 19.0171 214.052 19.8181 214.052 20.8C214.052 21.7918 214.114 22.6009 214.238 23.2273C214.361 23.8546 214.618 24.3541 215.009 24.7285C215.398 25.1029 215.969 25.2901 216.719 25.2901C217.461 25.2901 218.032 25.1029 218.431 24.7285C218.831 24.3541 219.096 23.8573 219.224 23.2345C219.352 22.6126 219.417 21.8017 219.417 20.8ZM290.151 28.6246H286.298V27.2791C285.785 27.8056 285.229 28.1854 284.631 28.4203C284.033 28.6534 283.296 28.7704 282.416 28.7704C281.537 28.7704 280.762 28.6561 280.09 28.4275C279.418 28.198 278.85 27.8542 278.386 27.3961C277.516 26.5186 277.082 25.3486 277.082 23.8861C277.082 23.0473 277.282 22.285 277.682 21.5974C278.083 20.9098 278.684 20.3662 279.49 19.9666C280.295 19.567 281.29 19.3672 282.475 19.3672H286.209V18.5923C286.209 17.7238 285.98 17.0974 285.521 16.7122C285.061 16.327 284.312 16.1344 283.276 16.1344C282.525 16.1344 281.94 16.228 281.519 16.4125C281.1 16.5979 280.672 16.9345 280.238 17.4214L277.719 14.9941C278.45 14.185 279.245 13.6243 280.104 13.312C280.964 13.0006 282.07 12.844 283.423 12.844C285.636 12.844 287.311 13.3075 288.447 14.2336C289.583 15.1597 290.151 16.5349 290.151 18.3574V28.6246ZM286.209 22.8772V22.0285H283.083C282.381 22.0285 281.838 22.1851 281.453 22.4965C281.068 22.8088 280.876 23.2426 280.876 23.7988C280.876 24.364 281.065 24.805 281.445 25.1218C281.826 25.4386 282.391 25.597 283.142 25.597C283.725 25.597 284.204 25.5484 284.58 25.4512C284.954 25.354 285.305 25.1533 285.632 24.8509C286.017 24.4999 286.209 23.842 286.209 22.8772Z" fill="white"/>
<path d="M239.478 22.0285H229.58C229.58 23.0527 229.889 23.8888 230.506 24.5368C231.124 25.1857 231.971 25.5097 233.048 25.5097C233.887 25.5097 234.559 25.3981 235.063 25.1731C235.566 24.949 236.09 24.5737 236.633 24.0472L239.019 26.3431C238.16 27.1909 237.281 27.8128 236.381 28.2079C235.482 28.6021 234.361 28.8001 233.018 28.8001C230.884 28.8001 229.13 28.1935 227.757 26.9794C226.384 25.7653 225.698 23.7061 225.698 20.8C225.698 19.153 225.985 17.7265 226.557 16.5223C227.13 15.3181 227.938 14.4046 228.98 13.78C230.022 13.1563 231.225 12.844 232.588 12.844C234.011 12.844 235.243 13.1608 236.285 13.7944C237.327 14.4289 238.12 15.3181 238.663 16.4638C239.206 17.6095 239.478 18.8893 239.478 20.3032V22.0285ZM235.596 19.3672C235.566 18.7435 235.443 18.1828 235.225 17.6851C235.008 17.2072 234.675 16.8202 234.226 16.5223C233.775 16.2253 233.23 16.0759 232.588 16.0759C231.965 16.0759 231.427 16.2253 230.972 16.5223C230.518 16.8202 230.177 17.2072 229.951 17.6851C229.733 18.2215 229.61 18.7822 229.58 19.3672H235.596Z" fill="white"/>
<path d="M254.947 28.6246H251.006V19.2025C251.006 18.2197 250.752 17.4988 250.243 17.0407C249.734 16.5835 249.119 16.354 248.398 16.354C247.677 16.354 247.057 16.5835 246.538 17.0407C246.02 17.4988 245.76 18.2197 245.76 19.2025V28.6246H241.819V13.0195H245.672V14.4595C246.175 13.9411 246.771 13.5424 247.457 13.2625C248.144 12.9835 248.862 12.844 249.613 12.844C251.154 12.844 252.399 13.3021 253.347 14.2192C253.95 14.8141 254.367 15.4621 254.599 16.1641C254.831 16.8661 254.947 17.695 254.947 18.6508V28.6246Z" fill="white"/>
<path d="M269.409 26.6707C268.016 28.09 266.273 28.8001 264.178 28.8001C263.309 28.8001 262.469 28.6732 261.66 28.4203C260.849 28.1665 260.096 27.73 259.399 27.1108C258.703 26.4916 258.147 25.6555 257.732 24.6025C257.317 23.5495 257.11 22.2823 257.11 20.8C257.11 19.3087 257.317 18.0415 257.732 16.9975C258.147 15.9544 258.703 15.1255 259.399 14.5117C260.096 13.897 260.854 13.4659 261.674 13.2175C262.494 12.9682 263.328 12.844 264.178 12.844C265.294 12.844 266.27 13.0132 267.104 13.3507C267.94 13.6882 268.707 14.2201 269.409 14.9446L266.727 17.5825C266.331 17.1442 265.936 16.8301 265.541 16.6393C265.147 16.4494 264.692 16.354 264.178 16.354C263.26 16.354 262.513 16.6942 261.94 17.3746C261.348 18.1036 261.051 19.2457 261.051 20.8C261.051 22.384 261.348 23.5405 261.94 24.2695C262.513 24.9499 263.26 25.2901 264.178 25.2901C264.692 25.2901 265.144 25.1929 265.534 24.9976C265.924 24.8023 266.322 24.4909 266.727 24.0616L269.409 26.6707Z" fill="white"/>
<path d="M271.171 28.6246H275.112V13.0195H271.171V28.6246Z" fill="white"/>
<path d="M275.602 8.61765C275.602 9.29985 275.364 9.88035 274.89 10.3583C274.416 10.8362 273.833 11.0747 273.142 11.0747C272.46 11.0747 271.875 10.8335 271.386 10.3502C270.897 9.86775 270.652 9.29085 270.652 8.61765C270.652 7.94535 270.897 7.37205 271.386 6.89955C271.875 6.42615 272.46 6.18945 273.142 6.18945C273.497 6.18945 273.821 6.25065 274.112 6.37305C274.404 6.49455 274.663 6.66735 274.89 6.89235C275.118 7.11645 275.293 7.37205 275.416 7.66005C275.54 7.94715 275.602 8.26665 275.602 8.61765Z" fill="white"/>
<path d="M299.812 28.6246H297.568C296.044 28.6246 294.892 28.1881 294.11 27.316C293.328 26.443 292.937 25.3927 292.937 24.1642V7.30176H296.909V23.9149C296.909 24.3829 297.016 24.7366 297.232 24.976C297.451 25.2145 297.807 25.3342 298.3 25.3342H299.812V28.6246Z" fill="white"/>
<path d="M19.5739 28.6246H15.3511V16.1938L11.2313 24.2812H8.37173L4.2228 16.1938V28.6246H0V7.30176H4.16353L9.79423 18.8254L15.4103 7.30176H19.5739V28.6246Z" fill="white"/>
<path d="M23.0107 28.6246H26.9527V13.0195H23.0107V28.6246Z" fill="white"/>
<path d="M27.4408 8.61765C27.4408 9.29985 27.2037 9.88035 26.7296 10.3583C26.2554 10.8362 25.6727 11.0747 24.9806 11.0747C24.2995 11.0747 23.7141 10.8335 23.2253 10.3502C22.7366 9.86775 22.4922 9.29085 22.4922 8.61765C22.4922 7.94535 22.7366 7.37205 23.2253 6.89955C23.7141 6.42615 24.2995 6.18945 24.9806 6.18945C25.3372 6.18945 25.66 6.25065 25.9518 6.37305C26.2426 6.49455 26.5025 6.66735 26.7296 6.89235C26.9566 7.11645 27.1317 7.37205 27.2557 7.66005C27.3788 7.94715 27.4408 8.26665 27.4408 8.61765Z" fill="white"/>
<path d="M43.1758 28.6246H39.2348V19.2025C39.2348 18.2197 38.9804 17.4988 38.4716 17.0407C37.9627 16.5835 37.3472 16.354 36.6269 16.354C35.9056 16.354 35.2855 16.5835 34.7667 17.0407C34.2488 17.4988 33.9889 18.2197 33.9889 19.2025V28.6246H30.0479V13.0195H33.9004V14.4595C34.4038 13.9411 34.9992 13.5424 35.6858 13.2625C36.3725 12.9835 37.091 12.844 37.8415 12.844C39.3825 12.844 40.6272 13.3021 41.5755 14.2192C42.1782 14.8141 42.5959 15.4621 42.8275 16.1641C43.06 16.8661 43.1758 17.695 43.1758 18.6508V28.6246Z" fill="white"/>
<path d="M59.149 28.6246H55.2071V19.1152C55.2071 18.1612 54.9554 17.4619 54.452 17.0191C53.9478 16.5763 53.3405 16.354 52.6293 16.354C51.918 16.354 51.3153 16.5781 50.821 17.0263C50.3277 17.4745 50.0806 18.1702 50.0806 19.1152V28.6246H46.1387V7.30176H50.0806V14.4595C50.604 13.9312 51.1894 13.5298 51.8359 13.2553C52.4834 12.9817 53.1627 12.844 53.8739 12.844C54.7329 12.844 55.4943 12.9835 56.1554 13.2607C56.8174 13.5388 57.3682 13.9312 57.8077 14.4388C58.2472 14.9455 58.5809 15.5494 58.808 16.2523C59.035 16.9534 59.149 17.7148 59.149 18.5338V28.6246Z" fill="white"/>
<path d="M74.0394 28.6246H70.1868V27.2791C69.6734 27.8056 69.1172 28.1854 68.5199 28.4203C67.9218 28.6534 67.1841 28.7704 66.305 28.7704C65.4251 28.7704 64.65 28.6561 63.9789 28.4275C63.3069 28.198 62.7388 27.8542 62.2747 27.3961C61.4047 26.5186 60.9707 25.3486 60.9707 23.8861C60.9707 23.0473 61.1704 22.285 61.5707 21.5974C61.971 20.9098 62.5728 20.3662 63.378 19.9666C64.1832 19.567 65.1789 19.3672 66.3643 19.3672H70.0984V18.5923C70.0984 17.7238 69.8686 17.0974 69.409 16.7122C68.9494 16.327 68.2017 16.1344 67.164 16.1344C66.4136 16.1344 65.8282 16.228 65.4087 16.4125C64.9883 16.5979 64.5616 16.9345 64.1266 17.4214L61.6081 14.9941C62.3385 14.185 63.1336 13.6243 63.9935 13.312C64.8525 13.0006 65.9585 12.844 67.3126 12.844C69.5248 12.844 71.1999 13.3075 72.3351 14.2336C73.4713 15.1597 74.0394 16.5349 74.0394 18.3574V28.6246ZM70.0984 22.8772V22.0285H66.9716C66.2695 22.0285 65.7269 22.1851 65.3421 22.4965C64.9564 22.8088 64.764 23.2426 64.764 23.7988C64.764 24.364 64.9537 24.805 65.3339 25.1218C65.7142 25.4386 66.2795 25.597 67.0309 25.597C67.6136 25.597 68.0923 25.5484 68.468 25.4512C68.8436 25.354 69.1947 25.1533 69.5202 24.8509C69.905 24.4999 70.0984 23.842 70.0984 22.8772Z" fill="white"/>
</svg>
