<svg width="98" height="98" viewBox="0 0 98 98" fill="none" xmlns="http://www.w3.org/2000/svg">
<g clip-path="url(#clip0)">
<path d="M63.0129 67.1491V65.4427C63.4951 65.0532 63.9588 64.6266 64.404 64.1815C67.9682 60.257 70.2124 55.3142 70.8215 50.0481C74.0247 49.56 76.9119 47.8434 78.8712 45.2627C81.5607 41.4604 81.8018 35.9888 79.5575 29.1262C79.4256 28.7304 79.1643 28.3905 78.8156 28.1617L77.7955 27.4754C77.9459 21.2832 75.806 15.2533 71.786 10.5413C66.7966 4.92129 59.1364 2.08348 48.9908 2.04639C38.8637 2.04639 31.1849 4.92129 26.1955 10.4671C22.1755 15.1791 20.0356 21.209 20.1861 27.4012L19.1659 28.0875C18.8172 28.3163 18.5559 28.6562 18.424 29.052C16.1797 35.9517 16.4209 41.3862 19.1103 45.1885C21.0622 47.7873 23.9494 49.5236 27.16 50.0295C27.7716 55.304 30.0229 60.2538 33.5961 64.1815C34.0378 64.6257 34.5019 65.0467 34.9872 65.4427V67.1491C27.8834 68.5217 -0.476165 75.1803 0.00607701 94.0991C0.00607701 95.1234 0.836554 95.9538 1.86086 95.9538H96.1392C97.1635 95.9538 97.994 95.1234 97.994 94.0991C98.4762 75.1803 70.1167 68.5217 63.0129 67.1491ZM26.0472 45.8934C24.4711 45.3641 23.0974 44.3599 22.115 43.0185L22.2078 43.037C20.353 40.329 20.1861 36.23 21.8368 30.814L23.1908 29.9052C23.7605 29.5249 24.0741 28.8619 24.0069 28.1802C23.6948 22.6368 25.4979 17.1812 29.0519 12.9154C33.2437 8.16716 39.9765 5.79304 48.9908 5.75594C58.005 5.71885 64.7378 8.16716 69.0038 12.9154C72.5578 17.1812 74.3609 22.6368 74.0488 28.1802C73.9816 28.8619 74.2953 29.5249 74.8649 29.9052L76.2189 30.814C77.8697 36.2114 77.7584 40.329 75.848 43.037C74.8589 44.3796 73.4792 45.3838 71.8973 45.9119C74.1346 43.3662 75.2278 40.0132 74.9206 36.638C74.573 34.6073 73.5144 32.7666 71.9344 31.4446C71.1368 12.8968 58.1348 10.8195 52.5334 10.8195C51.3477 10.816 50.1635 10.903 48.9908 11.0792C47.8183 10.9027 46.6338 10.816 45.4481 10.8195C39.8838 10.8195 26.9004 12.8597 26.0472 31.4446C24.4569 32.756 23.3853 34.5903 23.0239 36.6195C22.7146 39.9949 23.808 43.3488 26.0472 45.8934ZM68.2434 30.6842C60.4605 31.134 52.7263 29.1922 46.0788 25.1198C45.3264 24.5915 44.3005 24.6942 43.6676 25.361C39.958 29.3487 33.1881 30.2761 29.9236 30.4801C30.9252 17.3669 38.8637 14.5105 45.5409 14.5105C46.6037 14.5028 47.6651 14.5898 48.7126 14.7702C48.9574 14.8202 49.2096 14.8202 49.4545 14.7702C50.5019 14.5903 51.5633 14.5033 52.6261 14.5105C59.2477 14.5105 67.2232 17.4411 68.1506 30.6656L68.2434 30.6842ZM30.5728 46.2458L30.647 46.2643C30.651 45.8071 30.4859 45.3645 30.1833 45.0216C27.6423 42.1096 26.4738 39.4573 26.7891 37.2686C26.9402 36.0496 27.5423 34.9314 28.4769 34.1341C30.9252 34.1341 39.6056 33.6704 45.1699 28.8665C51.4365 32.4692 58.5297 34.3863 65.758 34.4308C67.0007 34.4308 68.2619 34.4308 69.5788 34.2268C70.4879 35.003 71.0816 36.0848 71.2481 37.2686C71.5634 39.4202 70.3949 42.1096 67.8539 45.0216C67.5513 45.3645 67.3862 45.8071 67.3902 46.2643C67.3902 46.2643 67.3902 46.6353 67.3902 47.2288L56.5954 53.0157C54.4531 50.9875 51.0721 51.08 49.0439 53.2223C47.0157 55.3646 47.1082 58.7456 49.2504 60.7738C51.3927 62.802 54.7737 62.7095 56.8019 60.5672C57.7418 59.5744 58.2654 58.2592 58.2647 56.8922C58.273 56.7253 58.273 56.5583 58.2647 56.3914L66.7781 51.8287C66.0473 55.486 64.3282 58.8731 61.8073 61.6219C58.5192 64.7875 54.0685 66.4524 49.5101 66.2217H48.5827C44.0341 66.4476 39.5931 64.7908 36.3041 61.6404C30.443 55.7979 30.5728 46.3385 30.5728 46.2458ZM54.5551 56.8922C54.5551 57.8038 53.816 58.5429 52.9044 58.5429C51.9927 58.5429 51.2536 57.8038 51.2536 56.8922C51.2536 55.9806 51.9927 55.2414 52.9044 55.2414C53.816 55.2414 54.5551 55.9806 54.5551 56.8922ZM47.136 92.133H3.77128C5.23655 78.2036 27.8834 72.3796 34.9686 70.8772V74.1973C34.9686 78.4076 40.0878 81.6164 47.136 82.1543V92.133ZM38.6782 74.1973V74.1416V67.7983C41.7613 69.2281 45.1291 69.9385 48.5271 69.8756H49.4545C52.8524 69.9385 56.2202 69.2281 59.3033 67.7983V74.1973C59.3033 75.9593 55.2785 78.5004 48.9908 78.5004C42.7031 78.5004 38.6782 75.9593 38.6782 74.1973ZM50.8455 92.1886V82.1357C57.8937 81.6535 63.0129 78.4262 63.0129 74.1787V70.9329C70.1538 72.4167 92.6893 78.2407 94.2103 92.1886H50.8455Z" fill="#DA291C"/>
</g>
<defs>
<clipPath id="clip0">
<rect width="98" height="98" fill="white" transform="matrix(1 0 0 -1 0 98)"/>
</clipPath>
</defs>
</svg>
