<svg width="26" height="26" viewBox="0 0 26 26" fill="none" xmlns="http://www.w3.org/2000/svg">
<path d="M19.1284 11.2617C19.1284 11.1401 19.1284 11.0185 19.1197 10.897C19.6667 10.4976 20.1443 10.0026 20.5263 9.44697C20.0227 9.66401 19.4757 9.82034 18.9113 9.88109C19.493 9.5338 19.9358 8.98678 20.1442 8.33555C19.6059 8.65681 18.9981 8.89126 18.3642 9.01281C17.8519 8.46579 17.1226 8.12716 16.3151 8.12716C14.7609 8.12716 13.5105 9.38616 13.5105 10.9317C13.5105 11.1488 13.5366 11.3659 13.58 11.5742C11.253 11.4527 9.17778 10.3413 7.79719 8.63944C7.55406 9.05622 7.41516 9.53377 7.41516 10.0547C7.41516 11.0272 7.91006 11.8868 8.66547 12.3904C8.20532 12.3731 7.77113 12.2428 7.39779 12.0345V12.0692C7.39779 13.4324 8.36161 14.5611 9.64667 14.8217C9.41225 14.8824 9.16043 14.9171 8.90863 14.9171C8.72628 14.9171 8.55263 14.8998 8.37896 14.8737C8.73497 15.9852 9.76823 16.7927 11.0012 16.8187C10.0374 17.5741 8.83046 18.0169 7.51937 18.0169C7.28492 18.0169 7.06787 18.0083 6.84211 17.9822C8.08376 18.781 9.55984 19.2412 11.1488 19.2412C16.3064 19.2412 19.1284 14.9692 19.1284 11.2617Z" fill="white"/>
<path fill-rule="evenodd" clip-rule="evenodd" d="M26 13C26 20.1797 20.1797 26 13 26C5.8203 26 0 20.1797 0 13C0 5.8203 5.8203 0 13 0C20.1797 0 26 5.8203 26 13ZM24.6316 13C24.6316 19.4239 19.4239 24.6316 13 24.6316C6.57606 24.6316 1.36842 19.4239 1.36842 13C1.36842 6.57606 6.57606 1.36842 13 1.36842C19.4239 1.36842 24.6316 6.57606 24.6316 13Z" fill="white"/>
</svg>
