<svg width="223" height="223" viewBox="0 0 223 223" fill="none" xmlns="http://www.w3.org/2000/svg">
<path d="M105.599 144.149V207.541H223V144.149H105.599ZM149.269 195.423H123.84V190.352L128.468 186.16C136.312 179.154 140.112 175.126 140.23 170.931C140.23 168.008 138.447 165.696 134.322 165.696C131.234 165.696 128.532 167.239 126.651 168.674L124.282 162.66C126.991 160.622 131.18 158.965 136.029 158.965C144.134 158.965 148.598 163.71 148.598 170.215C148.598 176.226 144.252 181.025 139.062 185.663L135.76 188.42V188.535H149.269V195.423H149.269ZM177.292 186.876H172.994V195.423H165.053V186.876H149.16V181.413L162.745 159.572H172.994V180.592H177.292V186.876ZM204.75 195.423H196.366V180.591C196.366 177.051 195.15 174.628 192.014 174.628C189.797 174.628 188.42 176.066 187.813 177.552C187.598 178.104 187.553 178.823 187.553 179.433V195.426H179.163V156.264H187.553V171.656H187.65C188.541 170.494 189.64 169.614 190.968 168.887C192.184 168.226 193.78 167.844 195.32 167.844C200.667 167.844 204.753 171.538 204.753 179.648V195.423H204.75Z" fill="#707070"/>
<path d="M161.79 172.645L157 180.479V180.592H165.05V172.645C165.05 170.498 165.16 168.283 165.327 165.97H165.105C163.955 168.283 163.006 170.385 161.79 172.645Z" fill="#707070"/>
<path d="M86.8246 168.82V176.867C53.5881 173.995 27.0672 147.462 24.1919 114.228H32.2417C35.5386 114.228 38.2048 111.553 38.2048 108.256C38.2048 104.959 35.5386 102.29 32.2417 102.29H24.1919C27.0672 69.0538 53.5881 42.5267 86.8246 39.6514V47.7009C86.8246 51.001 89.4904 53.676 92.8026 53.676C96.0995 53.676 98.7715 51.0007 98.7715 47.7009V39.6481C132.002 42.5234 158.535 69.0506 161.405 102.287H153.355C150.057 102.287 147.385 104.959 147.385 108.253C147.385 111.553 150.061 114.226 153.355 114.226H161.405C160.858 120.51 159.442 126.533 157.307 132.203H182.287C184.362 124.559 185.59 116.573 185.59 108.253C185.59 57.0064 144.046 15.4595 92.8026 15.4595C41.5498 15.4595 0 57.0064 0 108.253C0 159.512 41.5498 201.056 92.8026 201.056C93.0937 201.056 93.3758 201.013 93.652 201.01V163.021C93.3699 162.975 93.1058 162.848 92.8026 162.848C89.4904 162.848 86.8246 165.52 86.8246 168.82Z" fill="#707070"/>
<path d="M127.38 117.212C132.326 117.212 136.342 113.206 136.342 108.253C136.342 103.309 132.33 99.2995 127.38 99.2995H105.854C102.994 95.147 98.2198 92.4175 92.7997 92.4175C92.7086 92.4175 92.627 92.4419 92.545 92.4419L72.9272 64.838C70.0668 60.7981 64.471 59.8547 60.4399 62.7239C56.4121 65.5871 55.4658 71.18 58.332 75.214L77.9618 102.851C77.3402 104.544 76.955 106.351 76.955 108.259C76.955 117.019 84.0433 124.107 92.7997 124.107C98.2169 124.107 103 121.374 105.854 117.219H127.38V117.212Z" fill="#707070"/>
</svg>
