<svg width="22" height="14" viewBox="0 0 22 14" fill="none" xmlns="http://www.w3.org/2000/svg">
<path fill-rule="evenodd" clip-rule="evenodd" d="M3.39907 0.628558C2.64894 -0.182227 1.40142 -0.212641 0.61267 0.560626C-0.176083 1.33389 -0.20739 2.61802 0.542744 3.42881L9.06678 12.642C9.14866 12.7833 9.24868 12.9166 9.36684 13.0382C9.75488 13.4376 10.2645 13.6357 10.7731 13.6324C11.2799 13.6468 11.7922 13.4612 12.1886 13.0725C12.3096 12.9538 12.4128 12.8232 12.4981 12.684L20.9428 3.9912C21.7124 3.19892 21.7124 1.91439 20.9428 1.12211C20.1731 0.32984 18.9252 0.32984 18.1556 1.12211L10.8313 8.66167L3.39907 0.628558Z" fill="white"/>
</svg>
