<svg width="98" height="98" viewBox="0 0 98 98" fill="none" xmlns="http://www.w3.org/2000/svg">
<g clip-path="url(#clip0)">
<path d="M45.2206 66.4689C45.969 65.7205 45.969 64.5092 45.2206 63.7608C44.4715 63.0146 43.2579 63.0146 42.508 63.7608C41.7604 64.5092 41.7604 65.7205 42.508 66.4689C43.2579 67.2151 44.4715 67.2151 45.2206 66.4689Z" fill="#DA291C"/>
<path d="M36.1406 21.0487C36.1406 32.655 45.6016 42.0982 57.2305 42.0982C68.8595 42.0982 78.3204 32.655 78.3204 21.0487C78.3204 9.44246 68.8595 0 57.2305 0C45.6016 0 36.1406 9.44246 36.1406 21.0487ZM74.4863 21.0487C74.4863 30.545 66.7454 38.2708 57.2305 38.2708C47.7156 38.2708 39.9747 30.545 39.9747 21.0487C39.9747 11.5532 47.7156 3.82738 57.2305 3.82738C66.7454 3.82738 74.4863 11.5532 74.4863 21.0487Z" fill="#DA291C"/>
<path d="M22.1795 97.4339C22.9227 98.1816 24.1325 98.1899 24.8854 97.4496L34.1808 88.31C35.76 86.7339 36.2402 84.4004 35.5458 82.3719L37.5452 80.4474C38.6217 79.4096 40.0391 78.8376 41.5374 78.8376H67.0255C71.5474 78.8376 75.8212 77.1045 79.0613 73.9575C79.1946 73.8282 78.0492 75.1747 96.4497 53.2258C99.1788 50.0033 98.7705 45.1643 95.5387 42.4375C92.3271 39.7362 87.5161 40.1242 84.7795 43.2914L73.4659 54.8969C72.0373 53.1421 69.8588 52.0482 67.505 52.0482H46.1252C43.0829 50.7779 39.8548 50.1349 36.5241 50.1349C27.2917 50.1349 19.2302 54.3907 14.9038 62.37C13.0812 62.0253 11.1589 62.5756 9.77595 63.9558L0.655128 73.0857C-0.0895215 73.8312 -0.0910197 75.0372 0.652131 75.7848L22.1795 97.4339ZM36.5234 53.9615C39.46 53.9615 42.2993 54.5515 44.964 55.7149C45.2067 55.821 45.4682 55.8756 45.7326 55.8756H67.505C69.5839 55.8756 71.3399 57.5676 71.3399 59.7022C71.3399 61.8129 69.6198 63.5296 67.505 63.5296H51.8621C50.8036 63.5296 49.945 64.3865 49.945 65.4429C49.945 66.5001 50.8036 67.3562 51.8621 67.3562H67.505C71.7339 67.3562 75.174 63.9229 75.174 59.7022C75.174 59.3658 75.15 59.0323 75.1065 58.7018C86.0508 47.4739 87.594 45.8963 87.66 45.8178C89.0264 44.208 91.4521 44.0039 93.0658 45.3617C94.6809 46.7247 94.8854 49.1442 93.5153 50.763L76.3187 71.2808C73.8075 73.6869 70.5105 75.011 67.0255 75.011H41.5374C39.0398 75.011 36.6755 75.9643 34.882 77.6937L33.2526 79.2631L18.2323 64.2728C21.7428 57.6999 28.33 53.9615 36.5234 53.9615ZM12.4894 66.6601C13.1216 66.0291 14.0925 65.9155 14.8634 66.391C15.1953 66.5929 14.2423 65.727 31.4697 82.8968C32.236 83.6617 32.1948 84.8804 31.4802 85.5937L23.5557 93.3853L4.71699 74.4398L12.4894 66.6601Z" fill="#DA291C"/>
<path d="M54.9301 9.56787V11.8102C52.6984 12.5997 51.0952 14.7269 51.0952 17.2219C51.0952 20.3868 53.6753 22.9626 56.8471 22.9626C57.9042 22.9626 58.7642 23.8209 58.7642 24.8759C58.7642 25.9309 57.9042 26.7892 56.8471 26.7892C56.0283 26.7892 55.1436 26.2756 54.3577 25.3417C53.676 24.5327 52.4669 24.4288 51.6563 25.1084C50.8457 25.7888 50.7409 26.9956 51.4226 27.8046C52.4474 29.021 53.6528 29.8689 54.9301 30.2966V32.5299C54.9301 33.5871 55.7886 34.4432 56.8471 34.4432C57.9057 34.4432 58.7642 33.5871 58.7642 32.5299V30.2876C60.9959 29.4973 62.5991 27.3702 62.5991 24.8759C62.5991 21.7102 60.019 19.1352 56.8471 19.1352C55.7901 19.1352 54.9301 18.2769 54.9301 17.2219C54.9301 16.1669 55.7901 15.3078 56.8471 15.3078C57.5266 15.3078 58.2435 15.654 58.9208 16.3082C59.6819 17.0432 60.8955 17.023 61.6319 16.2641C62.3683 15.5045 62.3481 14.2932 61.5877 13.5582C60.6146 12.6184 59.6407 12.0868 58.7642 11.7967V9.56787C58.7642 8.51065 57.9057 7.65381 56.8471 7.65381C55.7886 7.65381 54.9301 8.51065 54.9301 9.56787Z" fill="#DA291C"/>
</g>
<defs>
<clipPath id="clip0">
<rect width="98" height="98" fill="white"/>
</clipPath>
</defs>
</svg>
