<svg width="26" height="26" viewBox="0 0 26 26" fill="none" xmlns="http://www.w3.org/2000/svg">
<path fill-rule="evenodd" clip-rule="evenodd" d="M7.71905 7.69737H18.2782C18.762 7.69737 19.1579 8.08491 19.1579 8.56065V18.8078C19.1579 19.2835 18.762 19.6711 18.2782 19.6711H7.71905C7.23522 19.6711 6.84211 19.2835 6.84211 18.8078V8.56065C6.84211 8.08491 7.23522 7.69737 7.71905 7.69737ZM8.73896 17.9605H10.5671V12.2463H8.73896V17.9605ZM8.59326 10.4369C8.59326 11.0035 9.06609 11.4659 9.65164 11.4659C10.2372 11.4659 10.71 11.0062 10.71 10.4369C10.71 9.87027 10.2344 9.4079 9.65164 9.4079C9.06609 9.4079 8.59326 9.87027 8.59326 10.4369ZM15.5814 17.9605H17.4067V14.8281C17.4067 13.2887 17.0631 12.1046 15.2157 12.1046C14.3278 12.1046 13.7313 12.5777 13.4866 13.0267H13.4618V12.2463H11.7107V17.9605H13.5361V15.1328C13.5361 14.3871 13.6818 13.6655 14.6329 13.6655C15.5676 13.6655 15.5814 14.5181 15.5814 15.1809V17.9605Z" fill="white"/>
<path fill-rule="evenodd" clip-rule="evenodd" d="M26 13C26 20.1797 20.1797 26 13 26C5.8203 26 0 20.1797 0 13C0 5.8203 5.8203 0 13 0C20.1797 0 26 5.8203 26 13ZM24.6316 13C24.6316 19.4239 19.4239 24.6316 13 24.6316C6.57606 24.6316 1.36842 19.4239 1.36842 13C1.36842 6.57606 6.57606 1.36842 13 1.36842C19.4239 1.36842 24.6316 6.57606 24.6316 13Z" fill="white"/>
</svg>
