<svg width="315" height="38" viewBox="0 0 315 38" fill="none" xmlns="http://www.w3.org/2000/svg">
<path d="M150.937 16.035C152.558 17.6814 153.368 19.6726 153.368 21.9687C153.368 24.2658 152.558 26.2561 150.937 27.8644C149.277 29.5098 147.273 30.3496 144.998 30.3496C142.722 30.3496 140.751 29.5098 139.134 27.8644C137.474 26.2561 136.663 24.2658 136.663 21.9687C136.663 19.6726 137.474 17.6814 139.134 16.035C140.751 14.3906 142.722 13.585 144.998 13.585C147.273 13.585 149.277 14.3906 150.937 16.035ZM148.122 25.0686C148.968 24.1879 149.394 23.1534 149.433 21.9687C149.394 20.7052 148.968 19.6726 148.159 18.8309C147.273 17.9474 146.232 17.5284 144.998 17.5664C143.801 17.5284 142.76 17.9474 141.909 18.8309C141.061 19.6726 140.596 20.7052 140.596 21.9687C140.596 23.1534 141.061 24.1879 141.909 25.0686C142.76 25.9502 143.801 26.3682 144.998 26.3682C146.232 26.3682 147.273 25.9502 148.122 25.0686Z" fill="#E3262E"/>
<path d="M92.1852 9.48858C89.2937 9.45248 86.9001 10.4462 84.8952 12.5143C82.8472 14.5426 81.8457 16.9537 81.8457 19.8246C81.8457 22.6565 82.8472 25.1455 84.8952 27.1738C86.9001 29.165 89.2937 30.1606 92.1852 30.1606C94.5003 30.1606 96.622 29.4718 98.4718 28.0554C100.287 26.6019 101.482 24.8007 102.099 22.5796H97.8944C97.3535 23.6531 96.5818 24.5337 95.6186 25.2206C94.5386 25.8742 93.4184 26.2162 92.1852 26.2162C90.411 26.2162 88.9069 25.5664 87.6718 24.3418C86.4003 23.0783 85.7818 21.5859 85.8191 19.8246C85.7818 18.0652 86.4003 16.5718 87.6718 15.3073C88.9069 14.0818 90.411 13.4339 92.1852 13.4339C93.4184 13.4339 94.5386 13.7778 95.6186 14.4666C96.5818 15.1183 97.3535 16.036 97.8944 17.1066H102.099C101.482 14.8884 100.287 13.0473 98.4718 11.6346C96.622 10.1802 94.5003 9.45248 92.1852 9.48858Z" fill="#E3262E"/>
<path d="M117.645 13.55C119.381 13.5101 120.924 13.853 122.312 14.5807C123.626 15.2695 124.321 16.6099 124.321 18.5242V30.2367H120.306V28.5904C119.074 29.6648 117.337 30.1987 115.138 30.2367C113.788 30.1987 112.671 29.8178 111.857 29.1271C110.934 28.2854 110.471 27.1359 110.508 25.7204C110.471 23.6903 111.204 22.2757 112.707 21.3941C113.596 20.8963 114.751 20.5534 116.182 20.3605L119.266 19.8637C119.884 19.5977 120.193 19.1749 120.193 18.6391C120.154 17.9884 119.96 17.5286 119.496 17.2996C119.035 17.0308 118.378 16.8759 117.53 16.9158C116.527 16.8759 115.832 17.1448 115.409 17.6815C115.138 17.9884 114.907 18.4472 114.831 19.136H110.816C110.934 17.6815 111.281 16.5339 111.975 15.6533C113.056 14.2349 114.945 13.5101 117.645 13.55ZM119.343 22.5436L117.337 23.0414C116.49 23.1545 115.832 23.3464 115.446 23.5753C114.791 23.9971 114.482 24.57 114.482 25.3756C114.482 26.1023 114.675 26.602 115.061 26.944C115.446 27.2499 115.911 27.4038 116.49 27.4038C117.414 27.4038 118.224 27.1359 118.995 26.602C119.729 26.0653 120.114 25.1077 120.114 23.7302V22.1209L119.343 22.5436Z" fill="#E3262E"/>
<path d="M104.145 30.2368H108.155V9.48877H104.145V30.2368Z" fill="#E3262E"/>
<path d="M133.694 14.1218C132.614 14.5426 131.65 15.2694 130.839 16.3809V14.3517L127.019 14.3118V30.2366H130.994V22.6176C130.994 21.319 131.147 20.3994 131.494 19.8246C131.767 19.2128 132.267 18.715 132.882 18.2951C133.578 17.8334 134.31 17.6054 135.083 17.6054L136.316 17.6805L136.278 13.623L135.236 13.7L133.694 14.1218Z" fill="#E3262E"/>
<path d="M154.061 14.1978L163.747 4.59143L161.197 2.06348L151.516 11.6727L154.061 14.1978Z" fill="#E3262E"/>
<path d="M143.686 10.3703H147.272V0.0732422H143.686V10.3703Z" fill="#E3262E"/>
<path d="M155.836 21.7407H166.446V18.1782H155.836V21.7407Z" fill="#E3262E"/>
<path d="M182.253 15.108L179.126 18.2506C178.794 17.901 178.464 17.6493 178.138 17.4944C177.811 17.3396 177.409 17.2626 176.932 17.2626C176.216 17.2626 175.592 17.5277 175.058 18.0568C174.523 18.586 174.256 19.3346 174.256 20.3007V30.2149H170.117V13.7429H174.162V15.3256C174.578 14.8297 175.158 14.4107 175.906 14.0697C176.652 13.7286 177.461 13.5576 178.333 13.5576C179.183 13.5576 179.909 13.6764 180.51 13.9148C181.112 14.1523 181.693 14.5504 182.253 15.108Z" fill="black"/>
<path d="M196.877 23.2524H186.484C186.484 24.3335 186.809 25.216 187.457 25.9C188.105 26.585 188.994 26.927 190.125 26.927C191.006 26.927 191.712 26.8092 192.241 26.5717C192.77 26.3351 193.32 25.939 193.89 25.3832L196.396 27.8067C195.493 28.7016 194.57 29.358 193.626 29.7751C192.682 30.1912 191.504 30.4002 190.094 30.4002C187.853 30.4002 186.012 29.7599 184.57 28.4783C183.129 27.1968 182.408 25.0232 182.408 21.9556C182.408 20.2171 182.709 18.7114 183.31 17.4403C183.911 16.1692 184.76 15.2049 185.854 14.5456C186.948 13.8873 188.211 13.5576 189.643 13.5576C191.136 13.5576 192.43 13.892 193.524 14.5608C194.619 15.2306 195.451 16.1692 196.021 17.3785C196.592 18.5879 196.877 19.9388 196.877 21.4312V23.2524ZM192.801 20.4432C192.77 19.7849 192.64 19.193 192.413 18.6677C192.184 18.1632 191.834 17.7547 191.362 17.4403C190.889 17.1268 190.317 16.9691 189.643 16.9691C188.989 16.9691 188.424 17.1268 187.947 17.4403C187.469 17.7547 187.112 18.1632 186.874 18.6677C186.645 19.2339 186.516 19.8257 186.484 20.4432H192.801Z" fill="black"/>
<path d="M211.812 25.0279C211.812 26.7778 211.156 28.1107 209.844 29.0265C208.532 29.9423 206.844 30.4002 204.78 30.4002C203.773 30.4002 202.882 30.3432 202.103 30.2301C201.326 30.1171 200.563 29.8881 199.817 29.5433C199.069 29.1984 198.364 28.6968 197.7 28.0385L200.408 25.3519C201.445 26.3817 202.923 26.8956 204.842 26.8956C205.63 26.8956 206.314 26.755 206.896 26.471C207.477 26.1888 207.767 25.7585 207.767 25.1828C207.767 24.2869 207.186 23.7825 206.024 23.6694L203.41 23.4224C201.834 23.2581 200.631 22.8106 199.801 22.0791C198.971 21.3486 198.556 20.258 198.556 18.8064C198.556 17.1705 199.176 15.887 200.416 14.9551C201.655 14.0241 203.172 13.5576 204.966 13.5576C207.819 13.5576 209.934 14.2008 211.314 15.4871L208.763 18.0502C207.932 17.3092 206.647 16.9387 204.904 16.9387C204.127 16.9387 203.538 17.0878 203.139 17.3861C202.739 17.6854 202.539 18.0606 202.539 18.5128C202.539 19.3678 203.115 19.8409 204.266 19.9331L206.88 20.1962C207.969 20.3093 208.879 20.5667 209.611 20.9676C210.342 21.3695 210.892 21.9176 211.26 22.6121C211.628 23.3065 211.812 24.1121 211.812 25.0279Z" fill="black"/>
<path d="M213.928 30.2147H218.067V13.7427H213.928V30.2147Z" fill="black"/>
<path d="M218.579 9.0963C218.579 9.8164 218.33 10.4292 217.832 10.9336C217.334 11.4381 216.722 11.6898 215.996 11.6898C215.28 11.6898 214.666 11.4352 214.153 10.9251C213.639 10.4159 213.383 9.8069 213.383 9.0963C213.383 8.38665 213.639 7.7815 214.153 7.28275C214.666 6.78305 215.28 6.5332 215.996 6.5332C216.37 6.5332 216.709 6.5978 217.015 6.727C217.321 6.85525 217.594 7.03765 217.832 7.27515C218.07 7.5117 218.254 7.7815 218.385 8.0855C218.514 8.38855 218.579 8.7258 218.579 9.0963Z" fill="black"/>
<path d="M234.525 30.2149H230.48V28.6636C229.93 29.2839 229.325 29.7285 228.665 29.9974C228.005 30.2662 227.239 30.4002 226.367 30.4002C225.815 30.4002 225.291 30.3413 224.793 30.2225C224.294 30.1047 223.826 29.9318 223.39 29.7057C222.954 29.4796 222.585 29.2165 222.284 28.9182C221.786 28.4451 221.408 27.8295 221.154 27.0733C220.899 26.3171 220.741 25.5552 220.679 24.7885C220.617 24.0219 220.585 23.0776 220.585 21.9556C220.585 20.8441 220.617 19.9084 220.679 19.1465C220.741 18.3846 220.902 17.6284 221.161 16.8769C221.421 16.1255 221.795 15.5137 222.284 15.0396C222.752 14.577 223.341 14.2141 224.053 13.9519C224.764 13.6887 225.525 13.5576 226.335 13.5576C227.209 13.5576 227.969 13.6821 228.619 13.93C229.268 14.178 229.857 14.6017 230.387 15.2011V7.70752H234.525V30.2149ZM230.387 21.9556C230.387 20.9097 230.319 20.0604 230.185 19.4096C230.05 18.7579 229.775 18.2373 229.36 17.8478C228.945 17.4574 228.343 17.2626 227.555 17.2626C226.757 17.2626 226.155 17.4574 225.75 17.8478C225.346 18.2373 225.079 18.7608 224.95 19.4172C224.82 20.0737 224.755 20.9192 224.755 21.9556C224.755 23.0025 224.82 23.8566 224.95 24.5178C225.079 25.1799 225.348 25.7072 225.759 26.1024C226.168 26.4976 226.767 26.6952 227.555 26.6952C228.334 26.6952 228.933 26.4976 229.352 26.1024C229.773 25.7072 230.05 25.1828 230.185 24.5254C230.319 23.8689 230.387 23.013 230.387 21.9556ZM304.658 30.2149H300.613V28.7947C300.074 29.3504 299.49 29.7513 298.863 29.9993C298.235 30.2453 297.46 30.3688 296.536 30.3688C295.613 30.3688 294.8 30.2482 294.094 30.0069C293.388 29.7646 292.793 29.4017 292.305 28.9182C291.392 27.9919 290.936 26.7569 290.936 25.2132C290.936 24.3278 291.146 23.5231 291.566 22.7973C291.987 22.0715 292.618 21.4977 293.464 21.0759C294.309 20.6541 295.355 20.4432 296.599 20.4432H300.519V19.6253C300.519 18.7085 300.279 18.0473 299.796 17.6407C299.314 17.2341 298.528 17.0308 297.439 17.0308C296.651 17.0308 296.037 17.1296 295.595 17.3244C295.155 17.5201 294.706 17.8754 294.25 18.3893L291.605 15.8272C292.372 14.9731 293.207 14.3813 294.109 14.0516C295.012 13.7229 296.173 13.5576 297.594 13.5576C299.918 13.5576 301.676 14.0469 302.869 15.0244C304.062 16.002 304.658 17.4536 304.658 19.3773V30.2149ZM300.519 24.1482V23.2524H297.237C296.5 23.2524 295.93 23.4177 295.525 23.7464C295.121 24.076 294.919 24.5339 294.919 25.121C294.919 25.7176 295.118 26.1831 295.518 26.5175C295.917 26.8519 296.51 27.0191 297.299 27.0191C297.911 27.0191 298.414 26.9678 298.808 26.8652C299.202 26.7626 299.57 26.5508 299.913 26.2316C300.317 25.8611 300.519 25.1666 300.519 24.1482Z" fill="black"/>
<path d="M251.452 23.2524H241.059C241.059 24.3335 241.384 25.216 242.032 25.9C242.68 26.585 243.57 26.927 244.7 26.927C245.581 26.927 246.287 26.8092 246.816 26.5717C247.345 26.3351 247.894 25.939 248.465 25.3832L250.97 27.8067C250.068 28.7016 249.145 29.358 248.201 29.7751C247.257 30.1912 246.079 30.4002 244.669 30.4002C242.428 30.4002 240.587 29.7599 239.145 28.4783C237.703 27.1968 236.983 25.0232 236.983 21.9556C236.983 20.2171 237.284 18.7114 237.885 17.4403C238.487 16.1692 239.335 15.2049 240.429 14.5456C241.524 13.8873 242.786 13.5576 244.218 13.5576C245.711 13.5576 247.005 13.892 248.099 14.5608C249.194 15.2306 250.027 16.1692 250.596 17.3785C251.167 18.5879 251.452 19.9388 251.452 21.4312V23.2524ZM247.376 20.4432C247.345 19.7849 247.216 19.193 246.987 18.6677C246.759 18.1632 246.408 17.7547 245.937 17.4403C245.464 17.1268 244.892 16.9691 244.218 16.9691C243.564 16.9691 242.999 17.1268 242.521 17.4403C242.044 17.7547 241.686 18.1632 241.449 18.6677C241.22 19.2339 241.091 19.8257 241.059 20.4432H247.376Z" fill="black"/>
<path d="M267.694 30.2149H263.556V20.2694C263.556 19.232 263.289 18.471 262.755 17.9875C262.221 17.5049 261.574 17.2626 260.818 17.2626C260.061 17.2626 259.41 17.5049 258.865 17.9875C258.321 18.471 258.048 19.232 258.048 20.2694V30.2149H253.91V13.7429H257.955V15.2629C258.484 14.7157 259.109 14.2948 259.83 13.9994C260.551 13.7049 261.305 13.5576 262.093 13.5576C263.712 13.5576 265.018 14.0412 266.014 15.0092C266.647 15.6372 267.086 16.3212 267.329 17.0622C267.573 17.8032 267.694 18.6781 267.694 19.687V30.2149Z" fill="black"/>
<path d="M282.879 28.1525C281.417 29.6506 279.586 30.4002 277.387 30.4002C276.475 30.4002 275.593 30.2662 274.743 29.9993C273.891 29.7314 273.1 29.2706 272.369 28.617C271.638 27.9634 271.054 27.0809 270.619 25.9694C270.183 24.8579 269.966 23.5203 269.966 21.9556C269.966 20.3815 270.183 19.0439 270.619 17.9419C271.054 16.8408 271.638 15.9659 272.369 15.318C273.1 14.6691 273.896 14.2141 274.758 13.9519C275.619 13.6887 276.495 13.5576 277.387 13.5576C278.559 13.5576 279.583 13.7362 280.459 14.0925C281.336 14.4487 282.143 15.0102 282.879 15.7749L280.063 18.5594C279.647 18.0967 279.233 17.7652 278.818 17.5638C278.404 17.3633 277.926 17.2626 277.387 17.2626C276.423 17.2626 275.639 17.6217 275.037 18.3399C274.415 19.1094 274.104 20.315 274.104 21.9556C274.104 23.6276 274.415 24.8484 275.037 25.6179C275.639 26.3361 276.423 26.6952 277.387 26.6952C277.926 26.6952 278.401 26.5926 278.811 26.3864C279.22 26.1803 279.638 25.8516 280.063 25.3984L282.879 28.1525Z" fill="black"/>
<path d="M284.729 30.2147H288.868V13.7427H284.729V30.2147Z" fill="black"/>
<path d="M289.382 9.0963C289.382 9.8164 289.132 10.4292 288.634 10.9336C288.136 11.4381 287.524 11.6898 286.798 11.6898C286.082 11.6898 285.468 11.4352 284.955 10.9251C284.441 10.4159 284.185 9.8069 284.185 9.0963C284.185 8.38665 284.441 7.7815 284.955 7.28275C285.468 6.78305 286.082 6.5332 286.798 6.5332C287.172 6.5332 287.512 6.5978 287.817 6.727C288.124 6.85525 288.395 7.03765 288.634 7.27515C288.873 7.5117 289.057 7.7815 289.186 8.0855C289.316 8.38855 289.382 8.7258 289.382 9.0963Z" fill="black"/>
<path d="M314.802 30.2149H312.446C310.846 30.2149 309.636 29.7542 308.815 28.8336C307.994 27.9121 307.583 26.8035 307.583 25.5067V7.70752H311.754V25.2436C311.754 25.7376 311.867 26.1109 312.094 26.3636C312.323 26.6154 312.697 26.7417 313.215 26.7417H314.802V30.2149Z" fill="black"/>
<path d="M20.5526 30.2149H16.1186V17.0935L11.7929 25.6302H8.79032L4.43394 17.0935V30.2149H0V7.70752H4.3717L10.2839 19.8713L16.1809 7.70752H20.5526V30.2149Z" fill="black"/>
<path d="M24.1611 30.2147H28.3002V13.7427H24.1611V30.2147Z" fill="black"/>
<path d="M28.8142 9.0963C28.8142 9.8164 28.5653 10.4292 28.0674 10.9336C27.5695 11.4381 26.9577 11.6898 26.231 11.6898C25.5158 11.6898 24.9011 11.4352 24.388 10.9251C23.8748 10.4159 23.6182 9.8069 23.6182 9.0963C23.6182 8.38665 23.8748 7.7815 24.388 7.28275C24.9011 6.78305 25.5158 6.5332 26.231 6.5332C26.6054 6.5332 26.9443 6.5978 27.2507 6.727C27.5561 6.85525 27.829 7.03765 28.0674 7.27515C28.3058 7.5117 28.4897 7.7815 28.6199 8.0855C28.7491 8.38855 28.8142 8.7258 28.8142 9.0963Z" fill="black"/>
<path d="M45.3351 30.2149H41.1971V20.2694C41.1971 19.232 40.9299 18.471 40.3957 17.9875C39.8614 17.5049 39.2151 17.2626 38.4588 17.2626C37.7014 17.2626 37.0504 17.5049 36.5056 17.9875C35.9617 18.471 35.6889 19.232 35.6889 20.2694V30.2149H31.5508V13.7429H35.596V15.2629C36.1245 14.7157 36.7497 14.2948 37.4707 13.9994C38.1916 13.7049 38.9461 13.5576 39.7341 13.5576C41.3522 13.5576 42.6591 14.0412 43.6548 15.0092C44.2877 15.6372 44.7262 16.3212 44.9694 17.0622C45.2135 17.8032 45.3351 18.6781 45.3351 19.687V30.2149Z" fill="black"/>
<path d="M62.1071 30.2149H57.9681V20.1772C57.9681 19.1702 57.7038 18.4321 57.1753 17.9647C56.6459 17.4973 56.0082 17.2626 55.2614 17.2626C54.5146 17.2626 53.8817 17.4992 53.3628 17.9723C52.8448 18.4454 52.5853 19.1797 52.5853 20.1772V30.2149H48.4463V7.70752H52.5853V15.2629C53.1349 14.7052 53.7496 14.2815 54.4284 13.9918C55.1082 13.703 55.8215 13.5576 56.5683 13.5576C57.4702 13.5576 58.2697 13.7049 58.9638 13.9975C59.6589 14.291 60.2372 14.7052 60.6987 15.241C61.1602 15.7759 61.5106 16.4133 61.7491 17.1553C61.9875 17.8953 62.1071 18.699 62.1071 19.5635V30.2149Z" fill="black"/>
<path d="M77.7417 30.2149H73.6964V28.7947C73.1574 29.3504 72.5734 29.7513 71.9462 29.9993C71.3181 30.2453 70.5436 30.3688 69.6206 30.3688C68.6967 30.3688 67.8828 30.2482 67.1782 30.0069C66.4725 29.7646 65.876 29.4017 65.3887 28.9182C64.4753 27.9919 64.0195 26.7569 64.0195 25.2132C64.0195 24.3278 64.2292 23.5231 64.6495 22.7973C65.0699 22.0715 65.7018 21.4977 66.5472 21.0759C67.3926 20.6541 68.4381 20.4432 69.6828 20.4432H73.6036V19.6253C73.6036 18.7085 73.3623 18.0473 72.8797 17.6407C72.3972 17.2341 71.6121 17.0308 70.5225 17.0308C69.7345 17.0308 69.1199 17.1296 68.6794 17.3244C68.238 17.5201 67.79 17.8754 67.3333 18.3893L64.6888 15.8272C65.4557 14.9731 66.2906 14.3813 67.1935 14.0516C68.0954 13.7229 69.2568 13.5576 70.6786 13.5576C73.0013 13.5576 74.7602 14.0469 75.9522 15.0244C77.1452 16.002 77.7417 17.4536 77.7417 19.3773V30.2149ZM73.6036 24.1482V23.2524H70.3205C69.5833 23.2524 69.0136 23.4177 68.6095 23.7464C68.2045 24.076 68.0025 24.5339 68.0025 25.121C68.0025 25.7176 68.2017 26.1831 68.6009 26.5175C69.0002 26.8519 69.5938 27.0191 70.3827 27.0191C70.9945 27.0191 71.4972 26.9678 71.8917 26.8652C72.2861 26.7626 72.6547 26.5508 72.9965 26.2316C73.4006 25.8611 73.6036 25.1666 73.6036 24.1482Z" fill="black"/>
</svg>
