<svg width="115" height="19" viewBox="0 0 115 19" fill="none" xmlns="http://www.w3.org/2000/svg">
<path d="M9.5 0L11.6329 6.56434H18.535L12.9511 10.6213L15.084 17.1857L9.5 13.1287L3.91604 17.1857L6.04892 10.6213L0.464963 6.56434H7.36712L9.5 0Z" fill="#FAA61B"/>
<path d="M33.5 0L35.6329 6.56434H42.535L36.9511 10.6213L39.084 17.1857L33.5 13.1287L27.916 17.1857L30.0489 10.6213L24.465 6.56434H31.3671L33.5 0Z" fill="#FAA61B"/>
<path d="M57.5 0L59.6329 6.56434H66.535L60.9511 10.6213L63.084 17.1857L57.5 13.1287L51.916 17.1857L54.0489 10.6213L48.465 6.56434H55.3671L57.5 0Z" fill="#FAA61B"/>
<path d="M81.5 0L83.6329 6.56434H90.535L84.9511 10.6213L87.084 17.1857L81.5 13.1287L75.916 17.1857L78.0489 10.6213L72.465 6.56434H79.3671L81.5 0Z" fill="#FAA61B"/>
<path d="M105.5 0L107.633 6.56434H114.535L108.951 10.6213L111.084 17.1857L105.5 13.1287L99.916 17.1857L102.049 10.6213L96.465 6.56434H103.367L105.5 0Z" fill="#FAA61B"/>
</svg>
